<?xml version="1.0" encoding="UTF-8"?>
<svg version="1.1" xmlns="http://www.w3.org/2000/svg" width="1024" height="1024">
<path d="M0 0 C337.92 0 675.84 0 1024 0 C1024 337.92 1024 675.84 1024 1024 C686.08 1024 348.16 1024 0 1024 C0 686.08 0 348.16 0 0 Z " fill="#FEFEFE" transform="translate(0,0)"/>
<path d="M0 0 C2.99382844 1.33869053 5.02055671 2.79778956 7.28515625 5.16015625 C7.89198242 5.78414307 8.49880859 6.40812988 9.12402344 7.05102539 C9.7637207 7.71481201 10.40341797 8.37859863 11.0625 9.0625 C17.07238733 15.16678724 23.16569394 20.81447028 30 26 C31.02867187 26.78673096 31.02867187 26.78673096 32.078125 27.58935547 C42.3454317 35.41424801 52.67785397 42.78614566 64 49 C65.32547852 49.73234863 65.32547852 49.73234863 66.67773438 50.47949219 C101.67911475 69.65912933 139.26813409 82.48935908 179 87 C179.80775879 87.09764648 180.61551758 87.19529297 181.44775391 87.29589844 C194.35857325 88.82633681 207.26519824 89.2402216 220.25 89.5546875 C221.97787118 89.59861815 223.70573585 89.64280574 225.43359375 89.68725586 C229.62232674 89.79446256 233.81113215 89.89820496 238 90 C238.04586119 124.8543713 238.08106162 159.70873567 238.10213066 194.56313067 C238.10463182 198.68580461 238.10722049 202.80847849 238.10986328 206.93115234 C238.11065021 208.16218448 238.11065021 208.16218448 238.11145304 209.41808595 C238.12013589 222.67524734 238.13589408 235.93239124 238.15430559 249.18954228 C238.17306383 262.81079758 238.1841292 276.43204378 238.18817699 290.05331147 C238.19090981 298.44617764 238.19951482 306.83899434 238.21583293 315.23184527 C238.22647308 321.00118144 238.22958487 326.77049234 238.22700275 332.53983758 C238.22573229 335.85950717 238.22868657 339.17902218 238.23841095 342.49868774 C238.33607444 377.58124381 238.33607444 377.58124381 233.875 393.3125 C233.66254639 394.08335937 233.45009277 394.85421875 233.23120117 395.6484375 C227.15208795 416.9029449 217.95431921 437.04755763 205 455 C204.30390625 455.969375 203.6078125 456.93875 202.890625 457.9375 C200.64227775 460.99907923 198.33922231 464.00734203 196 467 C195.27167969 467.93585938 194.54335938 468.87171875 193.79296875 469.8359375 C187.4950559 477.58878013 180.53697 484.67423511 173.5 491.75 C172.77330109 492.48459946 172.77330109 492.48459946 172.03192139 493.23403931 C165.36746805 499.95438879 158.39842766 506.0972034 151 512 C149.82902031 512.98293253 148.66269814 513.97147815 147.50390625 514.96875 C140.54770793 520.95496051 133.4217876 526.59576568 126 532 C125.32807617 532.49258301 124.65615234 532.98516602 123.96386719 533.49267578 C113.81392905 540.92977936 103.56517359 548.16447885 93 555 C92.30390625 555.45165527 91.6078125 555.90331055 90.890625 556.36865234 C70.49739271 569.55284086 49.41678321 581.56617746 28 593 C26.97261719 593.55059082 25.94523437 594.10118164 24.88671875 594.66845703 C21.74145428 596.35005982 18.59065663 598.02074954 15.4375 599.6875 C14.4673999 600.20521973 13.4972998 600.72293945 12.49780273 601.25634766 C11.58973877 601.73249512 10.6816748 602.20864258 9.74609375 602.69921875 C8.94872803 603.12033936 8.1513623 603.54145996 7.32983398 603.9753418 C3.89054299 605.48793787 1.34763545 606.40825884 -2.32983398 605.29418945 C-3.12719971 604.90448975 -3.92456543 604.51479004 -4.74609375 604.11328125 C-5.65439941 603.6757251 -6.56270508 603.23816895 -7.49853516 602.78735352 C-8.46839355 602.30065186 -9.43825195 601.8139502 -10.4375 601.3125 C-11.45376465 600.81355225 -12.4700293 600.31460449 -13.51708984 599.80053711 C-24.1830766 594.51206091 -34.61936847 588.82424746 -45 583 C-45.87366211 582.51418457 -46.74732422 582.02836914 -47.64746094 581.52783203 C-61.4308398 573.8570152 -74.78385798 565.60812436 -88 557 C-88.70350586 556.54383301 -89.40701172 556.08766602 -90.13183594 555.61767578 C-109.22331268 543.20964705 -127.50932656 529.5715068 -145 515 C-145.76546143 514.36408936 -145.76546143 514.36408936 -146.54638672 513.71533203 C-161.90733961 500.93244117 -176.51181963 487.67058134 -189 472 C-190.54064812 470.14498692 -192.08231045 468.2908157 -193.625 466.4375 C-219.18524654 435.02611269 -236.23361243 395.4456889 -236.12025452 354.55993652 C-236.12110894 353.42604067 -236.12196337 352.29214482 -236.12284368 351.12388849 C-236.12448731 347.33452925 -236.1189954 343.54521453 -236.11352539 339.75585938 C-236.11268588 337.03550183 -236.11335777 334.31514515 -236.1139679 331.5947876 C-236.11449128 325.74321535 -236.11136385 319.89165428 -236.10573006 314.04008484 C-236.09758993 305.57978338 -236.09499726 297.11948732 -236.09374207 288.65918237 C-236.09155549 274.93163935 -236.08490611 261.20410229 -236.07543945 247.4765625 C-236.06625512 234.14453155 -236.05917928 220.81250222 -236.05493164 207.48046875 C-236.05466892 206.65815976 -236.05440619 205.83585077 -236.05413551 204.98862332 C-236.05283044 200.86318474 -236.05156674 196.73774615 -236.05032361 192.61230755 C-236.03996329 158.40820075 -236.02235571 124.20410102 -236 90 C-234.9095639 89.97887146 -233.81912781 89.95774292 -232.69564819 89.93597412 C-228.56087983 89.85397635 -224.42635584 89.76267487 -220.2918396 89.66888428 C-218.51906459 89.6298967 -216.74623575 89.59326933 -214.97335815 89.55926514 C-133.97053843 87.99163534 -56.74241269 58.61304168 0 0 Z " fill="#1B412E" transform="translate(511,188)"/>
<path d="M0 0 C2.99382844 1.33869053 5.02055671 2.79778956 7.28515625 5.16015625 C7.89198242 5.78414307 8.49880859 6.40812988 9.12402344 7.05102539 C9.7637207 7.71481201 10.40341797 8.37859863 11.0625 9.0625 C17.07238733 15.16678724 23.16569394 20.81447028 30 26 C31.02867187 26.78673096 31.02867187 26.78673096 32.078125 27.58935547 C42.3454317 35.41424801 52.67785397 42.78614566 64 49 C65.32547852 49.73234863 65.32547852 49.73234863 66.67773438 50.47949219 C101.67911475 69.65912933 139.26813409 82.48935908 179 87 C179.80775879 87.09764648 180.61551758 87.19529297 181.44775391 87.29589844 C194.35857325 88.82633681 207.26519824 89.2402216 220.25 89.5546875 C221.97787118 89.59861815 223.70573585 89.64280574 225.43359375 89.68725586 C229.62232674 89.79446256 233.81113215 89.89820496 238 90 C238.04586119 124.8543713 238.08106162 159.70873567 238.10213066 194.56313067 C238.10463182 198.68580461 238.10722049 202.80847849 238.10986328 206.93115234 C238.11065021 208.16218448 238.11065021 208.16218448 238.11145304 209.41808595 C238.12013589 222.67524734 238.13589408 235.93239124 238.15430559 249.18954228 C238.17306383 262.81079758 238.1841292 276.43204378 238.18817699 290.05331147 C238.19090981 298.44617764 238.19951482 306.83899434 238.21583293 315.23184527 C238.22647308 321.00118144 238.22958487 326.77049234 238.22700275 332.53983758 C238.22573229 335.85950717 238.22868657 339.17902218 238.23841095 342.49868774 C238.33607444 377.58124381 238.33607444 377.58124381 233.875 393.3125 C233.66254639 394.08335937 233.45009277 394.85421875 233.23120117 395.6484375 C227.15208795 416.9029449 217.95431921 437.04755763 205 455 C204.30390625 455.969375 203.6078125 456.93875 202.890625 457.9375 C200.64227775 460.99907923 198.33922231 464.00734203 196 467 C195.27167969 467.93585938 194.54335938 468.87171875 193.79296875 469.8359375 C187.4950559 477.58878013 180.53697 484.67423511 173.5 491.75 C172.77330109 492.48459946 172.77330109 492.48459946 172.03192139 493.23403931 C165.36746805 499.95438879 158.39842766 506.0972034 151 512 C149.82902031 512.98293253 148.66269814 513.97147815 147.50390625 514.96875 C140.54770793 520.95496051 133.4217876 526.59576568 126 532 C125.32807617 532.49258301 124.65615234 532.98516602 123.96386719 533.49267578 C113.81392905 540.92977936 103.56517359 548.16447885 93 555 C92.30390625 555.45165527 91.6078125 555.90331055 90.890625 556.36865234 C70.49739271 569.55284086 49.41678321 581.56617746 28 593 C26.97261719 593.55059082 25.94523437 594.10118164 24.88671875 594.66845703 C21.74145428 596.35005982 18.59065663 598.02074954 15.4375 599.6875 C14.4673999 600.20521973 13.4972998 600.72293945 12.49780273 601.25634766 C11.58973877 601.73249512 10.6816748 602.20864258 9.74609375 602.69921875 C8.94872803 603.12033936 8.1513623 603.54145996 7.32983398 603.9753418 C3.89054299 605.48793787 1.34763545 606.40825884 -2.32983398 605.29418945 C-3.12719971 604.90448975 -3.92456543 604.51479004 -4.74609375 604.11328125 C-5.65439941 603.6757251 -6.56270508 603.23816895 -7.49853516 602.78735352 C-8.46839355 602.30065186 -9.43825195 601.8139502 -10.4375 601.3125 C-11.45376465 600.81355225 -12.4700293 600.31460449 -13.51708984 599.80053711 C-24.1830766 594.51206091 -34.61936847 588.82424746 -45 583 C-45.87366211 582.51418457 -46.74732422 582.02836914 -47.64746094 581.52783203 C-61.4308398 573.8570152 -74.78385798 565.60812436 -88 557 C-88.70350586 556.54383301 -89.40701172 556.08766602 -90.13183594 555.61767578 C-109.22331268 543.20964705 -127.50932656 529.5715068 -145 515 C-145.76546143 514.36408936 -145.76546143 514.36408936 -146.54638672 513.71533203 C-161.90733961 500.93244117 -176.51181963 487.67058134 -189 472 C-190.54064812 470.14498692 -192.08231045 468.2908157 -193.625 466.4375 C-219.18524654 435.02611269 -236.23361243 395.4456889 -236.12025452 354.55993652 C-236.12110894 353.42604067 -236.12196337 352.29214482 -236.12284368 351.12388849 C-236.12448731 347.33452925 -236.1189954 343.54521453 -236.11352539 339.75585938 C-236.11268588 337.03550183 -236.11335777 334.31514515 -236.1139679 331.5947876 C-236.11449128 325.74321535 -236.11136385 319.89165428 -236.10573006 314.04008484 C-236.09758993 305.57978338 -236.09499726 297.11948732 -236.09374207 288.65918237 C-236.09155549 274.93163935 -236.08490611 261.20410229 -236.07543945 247.4765625 C-236.06625512 234.14453155 -236.05917928 220.81250222 -236.05493164 207.48046875 C-236.05466892 206.65815976 -236.05440619 205.83585077 -236.05413551 204.98862332 C-236.05283044 200.86318474 -236.05156674 196.73774615 -236.05032361 192.61230755 C-236.03996329 158.40820075 -236.02235571 124.20410102 -236 90 C-234.9095639 89.97887146 -233.81912781 89.95774292 -232.69564819 89.93597412 C-228.56087983 89.85397635 -224.42635584 89.76267487 -220.2918396 89.66888428 C-218.51906459 89.6298967 -216.74623575 89.59326933 -214.97335815 89.55926514 C-133.97053843 87.99163534 -56.74241269 58.61304168 0 0 Z M-4.0625 29.6875 C-56.44897431 77.69585397 -127.27188779 101.2224748 -197.1875 105.6875 C-199.12440149 105.81757949 -201.061251 105.94843538 -202.99804688 106.08007812 C-207.66481714 106.39562396 -212.3321529 106.70082425 -217 107 C-217.06868097 137.5312058 -217.12165373 168.06239366 -217.15319599 198.59365844 C-217.15694737 202.21160901 -217.16083041 205.82955943 -217.16479492 209.44750977 C-217.16558185 210.16767139 -217.16636878 210.88783302 -217.16717956 211.62981773 C-217.18017515 223.23653392 -217.20379611 234.84320479 -217.23145839 246.44989424 C-217.25967649 258.39085317 -217.2762106 270.33178863 -217.28226548 282.27277952 C-217.28598516 288.96661323 -217.29518897 295.66033267 -217.31719017 302.35413933 C-217.33779428 308.67504942 -217.34378628 314.99581671 -217.33932304 321.3167572 C-217.34013768 323.61705874 -217.34595896 325.91736587 -217.35761642 328.21763802 C-217.64598894 388.14001939 -197.50541733 434.13146894 -155.55932617 476.55541992 C-154.96224854 477.15588135 -154.3651709 477.75634277 -153.75 478.375 C-153.19610596 478.93356689 -152.64221191 479.49213379 -152.0715332 480.06762695 C-110.77570942 521.20455012 -57.78588307 551.91250929 -7.02978516 579.83203125 C-5 581 -5 581 -2.26171875 582.96875 C0.04419712 584.31128287 0.04419712 584.31128287 2.82446289 583.23071289 C5.7326148 582.10362795 8.35073106 580.85865597 11.0703125 579.33984375 C12.51567383 578.53450195 12.51567383 578.53450195 13.99023438 577.71289062 C15.02470703 577.12701172 16.05917969 576.54113281 17.125 575.9375 C18.22392578 575.31681641 19.32285156 574.69613281 20.45507812 574.05664062 C56.98477275 553.28566237 93.33166941 530.50449463 126 504 C126.97324219 503.22011719 127.94648437 502.44023438 128.94921875 501.63671875 C134.25094568 497.35540788 139.3884216 492.93387727 144.41796875 488.3359375 C146.49529786 486.45659891 148.59749292 484.62176584 150.71875 482.79296875 C163.38490717 471.72433157 175.15173094 459.64618251 185 446 C186.14275391 444.45699219 186.14275391 444.45699219 187.30859375 442.8828125 C202.89986695 421.2117534 212.27504538 398.02809964 217.1875 371.875 C217.35467529 370.99303955 217.52185059 370.1110791 217.6940918 369.20239258 C220.35518361 354.3340048 220.13865219 339.44925036 220.11352539 324.40112305 C220.11324294 322.02485149 220.11340237 319.64857985 220.1139679 317.27230835 C220.11425363 310.85385367 220.10839316 304.43541785 220.10139394 298.01696754 C220.09527668 291.97900768 220.09476902 285.94104622 220.09374207 279.90308378 C220.09155979 267.95304516 220.08492217 256.00301341 220.07543945 244.05297852 C220.06624393 232.45271845 220.05917359 220.85246025 220.05493164 209.25219727 C220.05466892 208.53574674 220.05440619 207.81929621 220.05413551 207.08113506 C220.05283036 203.48649214 220.05156668 199.89184922 220.05032361 196.29720628 C220.0399767 166.53146613 220.02230599 136.7657337 220 107 C218.78086411 106.92090393 217.56172821 106.84180786 216.3056488 106.76031494 C211.70465195 106.46019498 207.10421408 106.15212029 202.50389099 105.84185791 C200.5273668 105.70962103 198.55070434 105.57943181 196.57389832 105.45147705 C151.94452398 102.55678226 109.1896262 91.78829414 69 72 C68.14825195 71.58105469 67.29650391 71.16210938 66.41894531 70.73046875 C43.60401053 59.38154738 22.38829129 45.37579813 3.96875 27.6953125 C0.28430173 24.52259316 -0.99435828 26.75618793 -4.0625 29.6875 Z " fill="#193C2B" transform="translate(511,188)"/>
<path d="M0 0 C1.1507753 0.00323273 1.1507753 0.00323273 2.32479858 0.00653076 C33.3554693 0.14597271 63.01494943 7.69633489 90.9375 21.3125 C91.11925781 20.59964844 91.30101562 19.88679688 91.48828125 19.15234375 C91.86533203 17.71568359 91.86533203 17.71568359 92.25 16.25 C92.49363281 15.31027344 92.73726562 14.37054688 92.98828125 13.40234375 C94.04890598 9.94985749 95.51477026 6.63220274 96.9375 3.3125 C102.5475 3.3125 108.1575 3.3125 113.9375 3.3125 C113.793125 5.66375 113.64875 8.015 113.5 10.4375 C113.43534546 11.49928467 113.43534546 11.49928467 113.36938477 12.58251953 C113.16839549 15.82469319 112.95731473 19.06412627 112.69897461 22.30236816 C112.00476415 31.17056642 111.73065824 40.00617043 111.62109375 48.8984375 C111.60044974 50.33574925 111.57945179 51.77305595 111.55812073 53.21035767 C111.50366684 56.94197426 111.45392894 60.67363837 111.40527344 64.40533447 C111.3544879 68.23380621 111.29910376 72.06221136 111.24414062 75.890625 C111.13750128 83.36452783 111.03628528 90.83848848 110.9375 98.3125 C105.3275 98.3125 99.7175 98.3125 93.9375 98.3125 C93.40125 96.146875 92.865 93.98125 92.3125 91.75 C87.86128457 74.67382711 80.68820594 59.60496522 68.9375 46.3125 C68.12539063 45.35730469 68.12539063 45.35730469 67.296875 44.3828125 C54.45457134 30.30816657 33.62323496 22.3434371 14.9375 21.3125 C-6.99139031 20.48887971 -28.53732465 24.39748857 -45.25 39.5625 C-55.23644211 49.00402489 -61.39043165 58.95836056 -67.0625 71.3125 C-67.475 72.17617188 -67.8875 73.03984375 -68.3125 73.9296875 C-78.43672826 96.78829661 -78.33850531 124.12128465 -78.375 148.625 C-78.37858521 149.59111206 -78.38217041 150.55722412 -78.38586426 151.5526123 C-78.45673366 187.07929322 -75.04319647 228.21524252 -50.7265625 256.26171875 C-49.0625 258.3125 -49.0625 258.3125 -48.0859375 260.45703125 C-46.77157228 262.83994529 -45.51396417 263.21294622 -43.0625 264.3125 C-41.70936713 265.3709991 -40.37736197 266.45682062 -39.0625 267.5625 C-20.73231917 281.96906369 2.48685086 284.35051889 24.96875 281.81640625 C34.23104405 280.56626344 42.98031506 278.32985321 51.8125 275.30078125 C54.9375 274.3125 54.9375 274.3125 57.9375 274.3125 C57.92259249 265.19310801 57.88085366 256.0743394 57.80540943 246.95524597 C57.77120376 242.72025553 57.74603953 238.48562337 57.74194336 234.25048828 C57.73764649 230.15878576 57.70907023 226.06789055 57.66406822 221.97644043 C57.65113728 220.42009189 57.64676988 218.86364651 57.65134621 217.30725098 C57.76966706 205.37053011 57.76966706 205.37053011 51.9375 195.3125 C43.40677403 186.98171292 30.23375231 185.11990037 18.9375 183.3125 C18.9375 179.0225 18.9375 174.7325 18.9375 170.3125 C58.5375 170.3125 98.1375 170.3125 138.9375 170.3125 C138.9375 174.6025 138.9375 178.8925 138.9375 183.3125 C137.85210938 183.62703125 136.76671875 183.9415625 135.6484375 184.265625 C134.20296723 184.69738885 132.75766343 185.12971025 131.3125 185.5625 C130.59964844 185.76746094 129.88679688 185.97242188 129.15234375 186.18359375 C122.25935474 188.27046198 117.11759399 191.27458646 112.9375 197.3125 C111.68164679 201.08005962 111.76066447 204.62077447 111.73217773 208.54760742 C111.72227814 209.38685257 111.71237854 210.22609772 111.70217896 211.09077454 C111.67057604 213.86647718 111.64581126 216.64219695 111.62109375 219.41796875 C111.60052318 221.34182685 111.57952668 223.26568043 111.55812073 225.18952942 C111.50291068 230.25459136 111.45349666 235.31969402 111.40527344 240.38482666 C111.35505065 245.55281195 111.29936864 250.72073808 111.24414062 255.88867188 C111.13657209 266.02989738 111.03512418 276.17117424 110.9375 286.3125 C79.15126755 295.29585755 79.15126755 295.29585755 64.4375 298.125 C63.71502075 298.26592072 62.9925415 298.40684143 62.24816895 298.55203247 C29.60132704 304.87136041 -8.2683367 309.26646697 -41.0625 301.3125 C-42.33915527 301.00650879 -42.33915527 301.00650879 -43.64160156 300.69433594 C-69.48313042 294.2968115 -90.31234843 283.29902285 -109.0625 264.3125 C-109.84238281 263.54292969 -110.62226563 262.77335937 -111.42578125 261.98046875 C-131.70609333 240.72475088 -140.49556615 210.70725689 -144.0625 182.3125 C-144.1567627 181.67207764 -144.25102539 181.03165527 -144.34814453 180.37182617 C-145.42713467 172.33923676 -145.30638005 164.21494519 -145.3125 156.125 C-145.31317474 155.32392822 -145.31384949 154.52285645 -145.31454468 153.69750977 C-145.25794428 111.30751743 -133.49106132 70.65631324 -103.125 39.9375 C-96.8739708 33.79331127 -90.2289045 28.3496194 -83.0625 23.3125 C-82.30453125 22.77496094 -81.5465625 22.23742187 -80.765625 21.68359375 C-68.85464262 13.9330077 -54.70351019 8.80985925 -41.125 4.875 C-40.32280029 4.64039063 -39.52060059 4.40578125 -38.6940918 4.1640625 C-25.92161141 0.66383072 -13.15608341 -0.06677037 0 0 Z " fill="#FDFDFD" transform="translate(521.0625,334.6875)"/>
<path d="M0 0 C3.53159545 1.51239168 5.81583771 3.58710429 8.5625 6.25 C60.57440639 54.66962694 134.93039971 76.10134235 204.28125 80.08203125 C205.81414301 80.17214236 207.34702075 80.26251351 208.87988281 80.35314941 C212.58641794 80.5717552 216.29314531 80.78687304 220 81 C220.04574491 111.3615325 220.08108088 141.7230614 220.10213066 172.08462055 C220.10463171 175.67897235 220.10722039 179.27332408 220.10986328 182.86767578 C220.11065021 183.94091371 220.11065021 183.94091371 220.11145304 185.03583321 C220.12012688 196.58124863 220.13587998 208.1266439 220.15430559 219.67204741 C220.17308913 231.54179298 220.18413448 243.41152808 220.18817699 255.28128791 C220.19066149 261.93860204 220.19682906 268.5958796 220.21146011 275.25318146 C220.22515007 281.53383724 220.22919983 287.81442921 220.22621536 294.0950985 C220.22676046 296.38620794 220.23066929 298.67731978 220.23841095 300.96841621 C220.29530852 318.6933937 219.74411588 336.3429668 215.75 353.6875 C215.53384033 354.645354 215.31768066 355.60320801 215.0949707 356.59008789 C211.64317014 371.33622913 206.19692133 384.70423688 199 398 C198.43410156 399.04800781 197.86820313 400.09601563 197.28515625 401.17578125 C183.24370684 426.12000313 162.73854149 447.62522925 141 466 C140.35450195 466.54696533 139.70900391 467.09393066 139.04394531 467.6574707 C123.97521629 480.33295284 108.32903101 492.00796633 92 503 C90.92379395 503.72783691 89.84758789 504.45567383 88.73876953 505.20556641 C72.41468765 516.24124673 55.98272221 526.9938082 39 537 C37.74654785 537.73935791 37.74654785 537.73935791 36.46777344 538.49365234 C31.77381152 541.25355382 27.05812039 543.97198557 22.32470703 546.66357422 C19.86729334 548.0762903 17.43174611 549.52278449 14.99609375 550.97265625 C13.37274226 551.91986479 11.74905578 552.86649951 10.125 553.8125 C9.38145264 554.26399414 8.63790527 554.71548828 7.87182617 555.18066406 C7.17420166 555.58124023 6.47657715 555.98181641 5.7578125 556.39453125 C4.84733154 556.93364136 4.84733154 556.93364136 3.91845703 557.48364258 C-1.18810433 558.85808611 -8.16550995 553.33331355 -12.5625 550.9375 C-13.5119751 550.42018311 -14.4614502 549.90286621 -15.43969727 549.36987305 C-27.18965229 542.89081995 -38.59005508 535.84102145 -50.01904297 528.81787109 C-52.37601205 527.38052533 -54.74043486 525.9659415 -57.12890625 524.58203125 C-82.08625484 510.0934662 -106.08290816 492.84629151 -128.26464844 474.43115234 C-129.80160365 473.16361837 -131.35658166 471.91800793 -132.9140625 470.67578125 C-149.30576182 457.59626896 -165.17465695 442.61842048 -178 426 C-178.74894531 425.04480469 -179.49789062 424.08960938 -180.26953125 423.10546875 C-204.78577941 391.23852268 -217.24830419 353.60801194 -217.12025452 313.45198059 C-217.12110894 312.45027869 -217.12196337 311.4485768 -217.12284368 310.4165203 C-217.12447807 307.09252146 -217.11901084 303.76857419 -217.11352539 300.44458008 C-217.11324305 298.04889934 -217.11340217 295.65321852 -217.1139679 293.25753784 C-217.1142244 287.44837974 -217.10990615 281.63923826 -217.10353024 275.83008394 C-217.09635527 269.06524346 -217.09488278 262.30040528 -217.09374207 255.53556152 C-217.0915583 243.4734926 -217.08491657 231.41143047 -217.07543945 219.34936523 C-217.06624783 207.63842808 -217.05917557 195.92749277 -217.05493164 184.21655273 C-217.05453756 183.13212778 -217.05453756 183.13212778 -217.05413551 182.02579526 C-217.05283039 178.39864293 -217.0515667 174.7714906 -217.05032361 171.14433825 C-217.03997203 141.09622074 -217.02229734 111.04811117 -217 81 C-215.81181168 80.92123123 -214.62362335 80.84246246 -213.39942932 80.76130676 C-208.91185616 80.4621555 -204.42487037 80.15484112 -199.93800354 79.84529114 C-198.01084316 79.71342895 -196.08353796 79.58366321 -194.15608215 79.45619202 C-177.52077905 78.35370108 -161.34907771 76.36549412 -145 73 C-143.92057129 72.77973145 -142.84114258 72.55946289 -141.72900391 72.33251953 C-103.06046194 64.2317159 -65.54752367 48.42181292 -33 26 C-32.38334473 25.58008789 -31.76668945 25.16017578 -31.13134766 24.72753906 C-23.36034342 19.41697282 -16.05030128 13.70585194 -8.9375 7.54296875 C-5.9881921 4.989778 -3.00322004 2.48927613 0 0 Z M-3.60546875 20.7109375 C-4.33354736 21.29117676 -5.06162598 21.87141602 -5.81176758 22.46923828 C-6.59575928 23.09813965 -7.37975098 23.72704102 -8.1875 24.375 C-43.23441048 51.98603343 -83.9918559 70.61054923 -127 82 C-128.33200439 82.35553955 -128.33200439 82.35553955 -129.69091797 82.71826172 C-150.2524001 88.0916317 -171.38491634 90.32720953 -192.52197266 92.0559082 C-193.62898026 92.14726295 -194.73598785 92.23861771 -195.87654114 92.33274078 C-198.58428762 92.55606526 -201.29210677 92.7784632 -204 93 C-204.04572365 122.39344397 -204.08107 151.78688625 -204.10213066 181.18035838 C-204.10463177 184.65840629 -204.10722045 188.13645414 -204.10986328 191.61450195 C-204.1103879 192.30685592 -204.11091252 192.99920988 -204.11145304 193.71254427 C-204.12013197 204.89139471 -204.13588795 216.07022437 -204.15430559 227.24906253 C-204.17307483 238.73798054 -204.18398201 250.22688399 -204.18817699 261.71581703 C-204.19077549 268.16121172 -204.19684725 274.60655943 -204.21146011 281.05193901 C-204.22512703 287.12985437 -204.22920437 293.20770381 -204.22621536 299.28563309 C-204.22676147 301.50543769 -204.23068424 303.72524471 -204.23841095 305.94503593 C-204.29141917 321.97214193 -203.70290912 337.66035391 -199.875 353.3125 C-199.66327148 354.18221436 -199.45154297 355.05192871 -199.23339844 355.94799805 C-190.26284331 390.93757892 -166.94266259 424.14061874 -139.22265625 447.15234375 C-137.36409986 448.69733 -135.55210138 450.27362303 -133.74609375 451.87890625 C-119.6482678 464.36662692 -104.47824966 475.29703515 -89 486 C-88.40993164 486.40895508 -87.81986328 486.81791016 -87.21191406 487.23925781 C-68.13654493 500.3897845 -48.12006765 512.21223621 -27.85400391 523.41796875 C-24.8578571 525.07879264 -21.872282 526.75773557 -18.88671875 528.4375 C-16.90411349 529.54250616 -14.92105573 530.6467009 -12.9375 531.75 C-12.02709961 532.26401367 -11.11669922 532.77802734 -10.17871094 533.30761719 C-9.32438477 533.77844727 -8.47005859 534.24927734 -7.58984375 534.734375 C-6.84597412 535.14913086 -6.10210449 535.56388672 -5.33569336 535.99121094 C-1.55235341 537.62524048 1.52488688 538.50537082 5.50341797 537.14233398 C6.32471191 536.68157471 7.14600586 536.22081543 7.9921875 535.74609375 C8.93191406 535.22869629 9.87164063 534.71129883 10.83984375 534.17822266 C11.84144531 533.60378418 12.84304688 533.0293457 13.875 532.4375 C14.93074219 531.84759277 15.98648438 531.25768555 17.07421875 530.64990234 C20.39405442 528.7856945 23.69818851 526.89591995 27 525 C28.01610352 524.42169434 29.03220703 523.84338867 30.07910156 523.24755859 C50.50729089 511.60622511 70.62456332 499.33001009 90 486 C90.67047363 485.54061035 91.34094727 485.0812207 92.03173828 484.60791016 C101.80179587 477.89057531 111.19483537 470.82886393 120.37207031 463.32373047 C122.66439492 461.45975566 124.99035581 459.63910875 127.3125 457.8125 C131.56853559 454.41049477 135.61758287 450.81383738 139.640625 447.140625 C141.6886696 445.28246533 143.7695697 443.47972579 145.875 441.6875 C155.14821917 433.57577495 163.4526148 424.73323993 171 415 C171.73863281 414.06671875 172.47726562 413.1334375 173.23828125 412.171875 C187.82502534 393.32751476 197.79434158 372.40881942 203.1875 349.1875 C203.3424292 348.5380542 203.4973584 347.8886084 203.65698242 347.21948242 C207.13845944 331.29414145 207.28461547 315.15160955 207.22705078 298.93505859 C207.22648528 296.67627467 207.22680593 294.41749038 207.22793579 292.15870667 C207.22850489 286.08348708 207.21682297 280.00834799 207.20278788 273.93314695 C207.19020601 267.56307105 207.18910418 261.1929929 207.18673706 254.82290649 C207.18124577 244.14950013 207.16879036 233.47612522 207.15087891 222.80273438 C207.13246552 211.81868636 207.11833589 200.83464631 207.10986328 189.85058594 C207.10933783 189.17129297 207.10881239 188.49200001 207.10827102 187.79212241 C207.10566057 184.38364156 207.10313324 180.97516066 207.10064721 177.56667972 C207.07998 149.37776621 207.04466146 121.18888494 207 93 C206.2244577 92.94825119 205.44891541 92.89650238 204.64987183 92.84318542 C201.05537331 92.60112384 197.46129138 92.35331837 193.8671875 92.10546875 C192.03837036 91.98359192 192.03837036 91.98359192 190.17260742 91.85925293 C147.69308732 88.90324004 106.50094174 78.1511555 68 60 C67.13197754 59.59281738 66.26395508 59.18563477 65.36962891 58.76611328 C43.36694884 48.3494454 22.48034818 35.45636087 4.00390625 19.546875 C0.61083261 16.92766026 -0.57673351 18.2676197 -3.60546875 20.7109375 Z " fill="#DEE3D5" transform="translate(511,214)"/>
<path d="M0 0 C13.86 0 27.72 0 42 0 C42 0.33 42 0.66 42 1 C28.70178645 2.0229395 15.33749935 2 2 2 C2 93.74 2 185.48 2 280 C0.12729523 276.25459046 -0.24965632 275.12126721 -0.24609566 271.1974144 C-0.2520688 269.74334234 -0.2520688 269.74334234 -0.25816262 268.25989509 C-0.25233693 267.19764472 -0.24651125 266.13539436 -0.24050903 265.04095459 C-0.24221788 263.91047644 -0.24392673 262.77999829 -0.24568737 261.61526322 C-0.24899116 257.81343205 -0.23796376 254.01177595 -0.22705078 250.20996094 C-0.22537419 247.49019254 -0.22671471 244.77042761 -0.22793579 242.05065918 C-0.2289849 236.18808925 -0.22270556 230.32556381 -0.21146011 224.46300507 C-0.19521164 215.98671771 -0.18999778 207.51045188 -0.18748413 199.03415063 C-0.183106 185.28219499 -0.1697937 171.53026307 -0.15087891 157.77832031 C-0.13252316 144.41894652 -0.11836516 131.05957917 -0.10986328 117.70019531 C-0.10933783 116.87683543 -0.10881239 116.05347554 -0.10827102 115.20516536 C-0.10566096 111.07464427 -0.10313354 106.94412313 -0.10064721 102.81360197 C-0.07991104 68.54238354 -0.04413219 34.27119595 0 0 Z " fill="#0C2116" transform="translate(275,278)"/>
<path d="M0 0 C6.27 0 12.54 0 19 0 C19.04531849 28.86684759 19.08107611 57.73368773 19.10213066 86.60056397 C19.10463174 90.01723802 19.10722041 93.43391199 19.10986328 96.85058594 C19.1103879 97.53071513 19.11091252 98.21084433 19.11145304 98.9115835 C19.1201291 109.88929627 19.13588347 120.86698785 19.15430559 131.8446881 C19.17308287 143.12907688 19.18398372 154.41345518 19.18817699 165.69786036 C19.19077413 172.02759222 19.19683703 178.3572762 19.21146011 184.68699265 C19.22513998 190.6573898 19.22920181 196.62771984 19.22621536 202.59813118 C19.22676091 204.77720188 19.23067584 206.95627507 19.23841095 209.13533211 C19.272354 219.19995009 19.18134087 229.17522873 18.11080933 239.19155884 C18.03321825 239.92823142 17.95562718 240.66490401 17.87568486 241.42390001 C17.44283365 244.97646175 16.88976266 247.92956417 15 251 C15.10470816 249.4555165 15.10470816 249.4555165 15.21153164 247.87983131 C16.02306286 235.16634096 16.17084478 222.48765092 16.20532227 209.75146484 C16.21492515 207.47297498 16.22493654 205.1944868 16.23532104 202.91600037 C16.26211545 196.78710741 16.28326117 190.65820696 16.30332303 184.52928877 C16.32534162 178.10314065 16.3526519 171.67701496 16.37937927 165.25088501 C16.42346018 154.48334699 16.46433026 143.71580196 16.50268555 132.94824219 C16.54216651 121.86717835 16.58362199 110.78612473 16.62768555 99.70507812 C16.63040982 99.01981117 16.63313409 98.33454421 16.63594092 97.62851159 C16.64962246 94.19006243 16.66334233 90.75161341 16.67708123 87.31316447 C16.79065944 58.87546447 16.89748295 30.43774189 17 2 C11.39 1.67 5.78 1.34 0 1 C0 0.67 0 0.34 0 0 Z " fill="#142015" transform="translate(699,307)"/>
<path d="M0 0 C2 3 2 3 3 6 C2.67 6.33 2.34 6.66 2 7 C1.87942977 9.46689264 1.82445593 11.90686555 1.81054688 14.37524414 C1.80223374 15.16142372 1.79392061 15.9476033 1.78535557 16.75760651 C1.75835505 19.43343362 1.73858111 22.10926702 1.71875 24.78515625 C1.70086862 26.72249208 1.68258234 28.6598242 1.66392517 30.59715271 C1.61371874 35.95595955 1.57001408 41.31480303 1.52747726 46.67367554 C1.49080047 51.19709536 1.45044888 55.72047936 1.41012096 60.24386787 C0.83282644 125.16163662 0.42510478 190.08109145 0 255 C-0.33 255 -0.66 255 -1 255 C-1.17305841 222.94780601 -1.33586892 190.89558067 -1.48431293 158.84326388 C-1.50183526 155.06176866 -1.51944523 151.28027385 -1.53710938 147.4987793 C-1.54062461 146.74593131 -1.54413985 145.99308331 -1.5477616 145.21742175 C-1.60493722 133.01708067 -1.66921806 120.8167868 -1.736111 108.61649557 C-1.80455872 96.10388447 -1.86540274 83.59125318 -1.91914403 71.07857019 C-1.95256351 63.35356364 -1.9919594 55.62863455 -2.03892837 47.9036983 C-2.07427074 41.98665588 -2.09904935 36.06959933 -2.11981392 30.1524868 C-2.13002068 27.72038055 -2.14370081 25.28828614 -2.16103554 22.85622025 C-2.18411572 19.54665997 -2.19492667 16.23728465 -2.20254517 12.92765808 C-2.2122618 11.95587763 -2.22197843 10.98409719 -2.2319895 9.98286885 C-2.2314908 9.09908002 -2.2309921 8.21529119 -2.23047829 7.30472088 C-2.23427549 6.54034385 -2.23807269 5.77596683 -2.24198496 4.98842686 C-2 3 -2 3 0 0 Z " fill="#284334" transform="translate(733,289)"/>
<path d="M0 0 C2.68073242 0.91422949 5.34796293 1.85998838 8.01269531 2.81982422 C8.93953125 3.14917969 9.86636719 3.47853516 10.82128906 3.81787109 C13.09505178 4.62658052 15.36707661 5.43983779 17.63769531 6.25732422 C15.98769531 7.90732422 14.33769531 9.55732422 12.63769531 11.25732422 C12.96769531 11.91732422 13.29769531 12.57732422 13.63769531 13.25732422 C13.30769531 13.91732422 12.97769531 14.57732422 12.63769531 15.25732422 C4.37203715 13.99842638 -3.42195204 11.85782127 -11.36230469 9.25732422 C-11.36230469 8.59732422 -11.36230469 7.93732422 -11.36230469 7.25732422 C-12.35230469 6.59732422 -13.34230469 5.93732422 -14.36230469 5.25732422 C-14.03230469 3.60732422 -13.70230469 1.95732422 -13.36230469 0.25732422 C-12.37230469 -0.07267578 -11.38230469 -0.40267578 -10.36230469 -0.74267578 C-6.88339157 -2.48213234 -3.58669312 -1.1276065 0 0 Z " fill="#DADED0" transform="translate(613.3623046875,275.74267578125)"/>
<path d="M0 0 C2 1 2 1 3.375 3.8125 C4.79627169 7.02440223 4.79627169 7.02440223 7.125 9.0625 C9.41264688 11.42640177 9.40649082 12.80988814 10 16 C10.67516021 17.24769607 11.3862581 18.47636532 12.125 19.6875 C12.74375 20.780625 13.3625 21.87375 14 23 C13.67 23.66 13.34 24.32 13 25 C10.48916886 23.74458443 10.12874554 22.49936512 9 20 C9.33 21.98 9.66 23.96 10 26 C8.35 26.66 6.7 27.32 5 28 C-2.69708056 20.57781518 -2.69708056 20.57781518 -3.44921875 16.66015625 C-4.24679315 12.80804161 -6.1556281 9.72816771 -8.0390625 6.3046875 C-9 4 -9 4 -8 1 C-7.071875 1.5259375 -7.071875 1.5259375 -6.125 2.0625 C-5.42375 2.371875 -4.7225 2.68125 -4 3 C-3.34 2.67 -2.68 2.34 -2 2 C-1.34 2 -0.68 2 0 2 C0 1.34 0 0.68 0 0 Z " fill="#DBDFD0" transform="translate(320,598)"/>
<path d="M0 0 C4.10110762 1.40398279 6.98089159 3.37087038 10.3125 6.125 C11.19550781 6.84945312 12.07851563 7.57390625 12.98828125 8.3203125 C13.98408203 9.15175781 13.98408203 9.15175781 15 10 C14.67 10.66 14.34 11.32 14 12 C12.68 11.01 11.36 10.02 10 9 C10.33 9.33 10.66 9.66 11 10 C10.91062197 11.52519276 10.75462854 13.04681929 10.5625 14.5625 C10.46066406 15.38878906 10.35882813 16.21507812 10.25390625 17.06640625 C10.17011719 17.70449219 10.08632813 18.34257813 10 19 C10.99 19 11.98 19 13 19 C13 18.34 13 17.68 13 17 C13.99 17 14.98 17 16 17 C15.67 19.97 15.34 22.94 15 26 C16.093125 26.639375 17.18625 27.27875 18.3125 27.9375 C18.92738281 28.29714844 19.54226563 28.65679688 20.17578125 29.02734375 C22.13819555 30.13901247 22.13819555 30.13901247 25 31 C25 31.99 25 32.98 25 34 C20.74885009 32.52511125 17.2992167 30.31326401 13.6875 27.6875 C13.0886499 27.25598633 12.4897998 26.82447266 11.87280273 26.37988281 C1.86587032 19.07728298 -7.6207285 11.08432692 -17 3 C-11.86773023 3 -8.71094988 6.31996098 -5.125 9.75 C-4.42375 10.4925 -3.7225 11.235 -3 12 C-0.59866729 10.39911152 1.702779 8.74271938 4 7 C3.67 6.01 3.34 5.02 3 4 C2.01 4.495 2.01 4.495 1 5 C0.67 3.35 0.34 1.7 0 0 Z " fill="#E1E7D9" transform="translate(391,678)"/>
<path d="M0 0 C0.5534764 2.07553648 1 3.84365964 1 6 C1.33 6 1.66 6 2 6 C1.51030705 12.61085476 -0.33442742 17.94977014 -3 24 C-3.33 23.01 -3.66 22.02 -4 21 C-3.67 20.34 -3.34 19.68 -3 19 C-5.16666667 19.83333333 -5.16666667 19.83333333 -6 22 C-6.66 21.34 -7.32 20.68 -8 20 C-11.05270463 19.84188612 -11.05270463 19.84188612 -14 21 C-13.67 22.65 -13.34 24.3 -13 26 C-13.598125 26.2475 -14.19625 26.495 -14.8125 26.75 C-17.28647521 28.16370012 -18.43370255 29.65055383 -20 32 C-19.36865604 26.60330641 -17.5849327 21.99223713 -15.5625 17 C-13.57566443 12.03495936 -11.62604679 7.0987598 -10 2 C-9.34 2.66 -8.68 3.32 -8 4 C-7.01 3.67 -6.02 3.34 -5 3 C-4.67 3.99 -4.34 4.98 -4 6 C-4.33 6.66 -4.66 7.32 -5 8 C-1.39345961 5.59563974 -1.14547068 4.05320393 0 0 Z " fill="#E0E3D7" transform="translate(722,568)"/>
<path d="M0 0 C4.30031115 0.61064982 8.17562469 1.63245838 12.26953125 3.07421875 C13.47665771 3.491875 14.68378418 3.90953125 15.92749023 4.33984375 C16.56129608 4.5601123 17.19510193 4.78038086 17.84811401 5.00732422 C31.2590014 9.65089268 44.69746515 13.35880538 58.56201172 16.43359375 C61.74769688 17.17370887 64.86826055 18.05917146 68 19 C64.21372317 20.3690722 61.35380972 19.64698489 57.484375 18.78515625 C56.23398437 18.51123047 54.98359375 18.23730469 53.6953125 17.95507812 C52.38016478 17.65774465 51.06506115 17.36021613 49.75 17.0625 C48.4194513 16.76806349 47.08872363 16.47443453 45.7578125 16.18164062 C42.50335853 15.46235913 39.25096649 14.7348552 36 14 C35.67 15.65 35.34 17.3 35 19 C33.68 19.33 32.36 19.66 31 20 C31 20.66 31 21.32 31 22 C31.71285156 22.12117188 32.42570313 22.24234375 33.16015625 22.3671875 C38.55234841 23.31063969 43.77235672 24.37362209 49 26 C49 26.33 49 26.66 49 27 C41.13217544 26.55880329 33.96795771 24.81842113 26.4375 22.5625 C25.34630859 22.24990234 24.25511719 21.93730469 23.13085938 21.61523438 C17.17021191 19.85860743 17.17021191 19.85860743 15 19 C14.67 18.34 14.34 17.68 14 17 C15.45903258 17.30921884 16.91720722 17.62248799 18.375 17.9375 C19.18710937 18.11152344 19.99921875 18.28554688 20.8359375 18.46484375 C23 19 23 19 25 20 C24.79375 19.38125 24.5875 18.7625 24.375 18.125 C24.25125 17.42375 24.1275 16.7225 24 16 C24.66 15.34 25.32 14.68 26 14 C25.67 13.34 25.34 12.68 25 12 C25.66 11.67 26.32 11.34 27 11 C26.21761963 10.73783691 25.43523926 10.47567383 24.62915039 10.20556641 C21.10430631 9.01969148 17.58340654 7.82251229 14.0625 6.625 C12.83080078 6.2125 11.59910156 5.8 10.33007812 5.375 C9.16025391 4.97539062 7.99042969 4.57578125 6.78515625 4.1640625 C5.70113525 3.79748535 4.61711426 3.4309082 3.50024414 3.05322266 C1 2 1 2 0 0 Z " fill="#E5EBDF" transform="translate(601,271)"/>
<path d="M0 0 C-0.66 0.66 -1.32 1.32 -2 2 C2.455 1.505 2.455 1.505 7 1 C7.495 2.485 7.495 2.485 8 4 C6.02 4 4.04 4 2 4 C2 4.99 2 5.98 2 7 C4.4390706 9.20142332 4.4390706 9.20142332 7 11 C-8.57890847 14.18370064 -24.05853653 16.50697234 -40 16 C-40 15.67 -40 15.34 -40 15 C-37.16724047 14.66103732 -34.33395339 14.32870306 -31.5 14 C-30.31277344 13.85691406 -30.31277344 13.85691406 -29.1015625 13.7109375 C-24.02970596 13.12892118 -19.10506141 12.90632915 -14 13 C-13.67 11.35 -13.34 9.7 -13 8 C-12.01 7.67 -11.02 7.34 -10 7 C-9.67 5.68 -9.34 4.36 -9 3 C-12.3 3 -15.6 3 -19 3 C-19 2.67 -19 2.34 -19 2 C-12.53205867 0.48766299 -6.64409958 -0.21432579 0 0 Z " fill="#E3E8DB" transform="translate(358,290)"/>
<path d="M0 0 C13.86 0 27.72 0 42 0 C42 0.33 42 0.66 42 1 C28.70178645 2.0229395 15.33749935 2 2 2 C2 23.12 2 44.24 2 66 C1.67 66 1.34 66 1 66 C0.67 44.22 0.34 22.44 0 0 Z " fill="#13281E" transform="translate(275,278)"/>
<path d="M0 0 C0.9075 0.185625 1.815 0.37125 2.75 0.5625 C5.83291129 1.20642402 5.83291129 1.20642402 8.0625 0.375 C11.01296133 -0.19605703 12.54824953 1.45152602 15 3 C15.66 2.67 16.32 2.34 17 2 C17 2.99 17 3.98 17 5 C17.66 5 18.32 5 19 5 C19 5.66 19 6.32 19 7 C16.33333333 8.33333333 13.66666667 9.66666667 11 11 C11 10.34 11 9.68 11 9 C8.525 10.485 8.525 10.485 6 12 C4.04783565 10.04783565 3.15173355 8.46800047 2 6 C1.34 6 0.68 6 0 6 C0 4.02 0 2.04 0 0 Z " fill="#DBDDCF" transform="translate(543,247)"/>
<path d="M0 0 C-0.04125 1.051875 -0.0825 2.10375 -0.125 3.1875 C-0.00852125 6.74010173 0.47208068 8.84866641 2 12 C0.58376784 12.05447047 -0.83308191 12.09300508 -2.25 12.125 C-3.03890625 12.14820313 -3.8278125 12.17140625 -4.640625 12.1953125 C-7.23397124 11.98063152 -8.76321019 11.29045566 -11 10 C-11.66 9.67 -12.32 9.34 -13 9 C-13.33 8.34 -13.66 7.68 -14 7 C-10.7 5.68 -7.4 4.36 -4 3 C-4 2.34 -4 1.68 -4 1 C-1 0 -1 0 0 0 Z " fill="#D9DDCE" transform="translate(423,270)"/>
<path d="M0 0 C0.66 0 1.32 0 2 0 C1.731875 0.639375 1.46375 1.27875 1.1875 1.9375 C-1.29856661 8.34893493 -3.29592435 14.13024111 -3.59375 21.0546875 C-4.11074248 23.5302861 -5.21256537 24.25691859 -7 26 C-7.99373439 28.2603044 -7.99373439 28.2603044 -8.6875 30.6875 C-9.06455078 31.89986328 -9.06455078 31.89986328 -9.44921875 33.13671875 C-9.63097656 33.75160156 -9.81273437 34.36648438 -10 35 C-10.33 35 -10.66 35 -11 35 C-10.43495607 22.23000709 -5.50419789 11.37534231 0 0 Z " fill="#182E22" transform="translate(458,395)"/>
<path d="M0 0 C0.33 1.32 0.66 2.64 1 4 C1.33 3.67 1.66 3.34 2 3 C2.99 3 3.98 3 5 3 C5 3.66 5 4.32 5 5 C4.05125 5.0825 3.1025 5.165 2.125 5.25 C1.09375 5.4975 0.0625 5.745 -1 6 C-2.06716704 7.79932579 -2.06716704 7.79932579 -3 10 C-4.9053715 11.81267775 -6.92485204 13.37597116 -9 15 C-9 14.01 -9 13.02 -9 12 C-9.33 11.01 -9.66 10.02 -10 9 C-10.66 8.67 -11.32 8.34 -12 8 C-12.33 7.34 -12.66 6.68 -13 6 C-11.96875 5.7525 -10.9375 5.505 -9.875 5.25 C-5.99399857 4.15920937 -3.23990359 2.37066116 0 0 Z " fill="#D9DCCF" transform="translate(475,244)"/>
<path d="M0 0 C0.33 0 0.66 0 1 0 C1 4.95 1 9.9 1 15 C-0.65 15.33 -2.3 15.66 -4 16 C-4 16.66 -4 17.32 -4 18 C-4.928125 18.268125 -5.85625 18.53625 -6.8125 18.8125 C-9.76240366 19.91148371 -11.05615186 20.62418561 -13 23 C-14.98 22.34 -16.96 21.68 -19 21 C-14.02399975 15.51874434 -7.07429128 14.63163315 0 14 C0 9.38 0 4.76 0 0 Z " fill="#182C21" transform="translate(660,504)"/>
<path d="M0 0 C-4.62 2.64 -9.24 5.28 -14 8 C-13.01 7.67 -12.02 7.34 -11 7 C-10.67 8.65 -10.34 10.3 -10 12 C-10.53367187 11.80921875 -11.06734375 11.6184375 -11.6171875 11.421875 C-18.47041647 9.38250583 -22.73147737 10.83302197 -29 14 C-29 13.34 -29 12.68 -29 12 C-25.35856844 10.11752317 -21.71071834 8.24820514 -18.05639648 6.39086914 C-16.81399758 5.75709152 -15.57341674 5.1197368 -14.3347168 4.47875977 C-12.55478262 3.55849744 -10.76770675 2.65208974 -8.98046875 1.74609375 C-7.90692139 1.19622803 -6.83337402 0.6463623 -5.72729492 0.07983398 C-3 -1 -3 -1 0 0 Z " fill="#13281B" transform="translate(466,266)"/>
<path d="M0 0 C11.00619554 3.97071153 20.99029234 14.1130616 27 24 C26.67 24.99 26.34 25.98 26 27 C25.5153125 26.29875 25.030625 25.5975 24.53125 24.875 C15.76169307 12.35716385 15.76169307 12.35716385 2.78515625 4.984375 C1 4 1 4 0.24609375 1.890625 C0.16488281 1.26671875 0.08367188 0.6428125 0 0 Z " fill="#12251A" transform="translate(572,367)"/>
<path d="M0 0 C0.66 0.33 1.32 0.66 2 1 C-5.02551058 6.08868318 -12.14921598 10.82903473 -19.6875 15.125 C-20.38230469 15.52710693 -21.07710938 15.92921387 -21.79296875 16.34350586 C-23.49330855 17.29509732 -25.24344164 18.15668247 -27 19 C-27.66 18.67 -28.32 18.34 -29 18 C-27.35 17.34 -25.7 16.68 -24 16 C-24 15.34 -24 14.68 -24 14 C-24.66 13.67 -25.32 13.34 -26 13 C-25.34 13 -24.68 13 -24 13 C-23.67 12.34 -23.34 11.68 -23 11 C-22.34 11.66 -21.68 12.32 -21 13 C-16.38 10.36 -11.76 7.72 -7 5 C-7.33 4.01 -7.66 3.02 -8 2 C-7.236875 2.04125 -6.47375 2.0825 -5.6875 2.125 C-2.77281584 2.22080824 -2.77281584 2.22080824 0 0 Z " fill="#0D1E11" transform="translate(480,237)"/>
<path d="M0 0 C0.33 0.66 0.66 1.32 1 2 C-0.08826885 4.27629569 -1.22324495 6.394629 -2.5 8.5625 C-3.04333984 9.50053467 -3.04333984 9.50053467 -3.59765625 10.45751953 C-6.6580325 15.6385659 -10.10999958 20.40493701 -14 25 C-14 22.35161227 -13.71072071 20.46887284 -13.0625 17.9375 C-12.88847656 17.24527344 -12.71445312 16.55304687 -12.53515625 15.83984375 C-12 14 -12 14 -11 12 C-10.22269531 11.73445312 -9.44539062 11.46890625 -8.64453125 11.1953125 C-5.28148098 9.67523365 -4.44991446 8.07193785 -2.6875 4.875 C-2.17574219 3.96492187 -1.66398438 3.05484375 -1.13671875 2.1171875 C-0.76160156 1.41851563 -0.38648438 0.71984375 0 0 Z " fill="#172B20" transform="translate(726,623)"/>
<path d="M0 0 C0.33 0.33 0.66 0.66 1 1 C3.58022142 1.28221172 6.16030185 1.44820197 8.75 1.62109375 C9.86375 1.80865234 9.86375 1.80865234 11 2 C11.33 2.66 11.66 3.32 12 4 C5.565 4.495 5.565 4.495 -1 5 C-1 4.67 -1 4.34 -1 4 C-7.27 3.34 -13.54 2.68 -20 2 C-20 1.67 -20 1.34 -20 1 C-6.61228407 -0.24952015 -6.61228407 -0.24952015 0 0 Z " fill="#254434" transform="translate(540,331)"/>
<path d="M0 0 C0.66 0 1.32 0 2 0 C3.32 2.97 4.64 5.94 6 9 C6.66 9 7.32 9 8 9 C8.99 12.63 9.98 16.26 11 20 C8.37098712 18.47793991 6.15634036 17.15634036 4 15 C3.34 15 2.68 15 2 15 C2 12.36 2 9.72 2 7 C1.34 6.67 0.68 6.34 0 6 C0 4 0 2 0 0 Z " fill="#264537" transform="translate(384,559)"/>
<path d="M0 0 C2.97 0 5.94 0 9 0 C9.33 1.32 9.66 2.64 10 4 C11.47890069 5.73026102 11.47890069 5.73026102 13 7 C11.35 7.33 9.7 7.66 8 8 C8.33 8.66 8.66 9.32 9 10 C6.29120665 11.35439668 3.99066732 11.06501451 1 11 C1.309375 10.401875 1.61875 9.80375 1.9375 9.1875 C3.10209704 6.91043228 3.10209704 6.91043228 4 4 C2.68 3.34 1.36 2.68 0 2 C0 1.34 0 0.68 0 0 Z " fill="#D5DCCC" transform="translate(383,283)"/>
<path d="M0 0 C0.99 0 1.98 0 3 0 C3.66 1.32 4.32 2.64 5 4 C3.68 4 2.36 4 1 4 C1.66 5.32 2.32 6.64 3 8 C2.01 8 1.02 8 0 8 C-2.15028304 8.94978897 -2.15028304 8.94978897 -4 10 C-5.17219543 9.21654285 -6.33763668 8.42297164 -7.5 7.625 C-8.1496875 7.18414062 -8.799375 6.74328125 -9.46875 6.2890625 C-9.9740625 5.86367187 -10.479375 5.43828125 -11 5 C-11 4.34 -11 3.68 -11 3 C-8.03 3.33 -5.06 3.66 -2 4 C-1.34 2.68 -0.68 1.36 0 0 Z " fill="#D9DBCB" transform="translate(532,233)"/>
<path d="M0 0 C0.66 0.33 1.32 0.66 2 1 C0.68 3.31 -0.64 5.62 -2 8 C-0.68 8.33 0.64 8.66 2 9 C-2.75 12 -2.75 12 -5 12 C-5.66 13.65 -6.32 15.3 -7 17 C-8.32 16.67 -9.64 16.34 -11 16 C-9.32076975 12.19866558 -6.88537166 9.02917298 -4.375 5.75 C-3.95476563 5.19570313 -3.53453125 4.64140625 -3.1015625 4.0703125 C-2.07061281 2.71133337 -1.03570089 1.35536165 0 0 Z " fill="#13291D" transform="translate(698,630)"/>
<path d="M0 0 C0.66 0.33 1.32 0.66 2 1 C0.4840625 2.051875 0.4840625 2.051875 -1.0625 3.125 C-2.75432167 4.42155138 -2.75432167 4.42155138 -4 6 C-4.02827577 9.25789019 -4.02827577 9.25789019 -3 12 C-3.804375 11.814375 -4.60875 11.62875 -5.4375 11.4375 C-6.283125 11.293125 -7.12875 11.14875 -8 11 C-8.33 11.33 -8.66 11.66 -9 12 C-8.34 12.33 -7.68 12.66 -7 13 C-8.875 13.625 -8.875 13.625 -11 14 C-11.66 13.34 -12.32 12.68 -13 12 C-14.65 12.66 -16.3 13.32 -18 14 C-14.61328496 10.33961102 -10.81399549 7.59149278 -6.75 4.75 C-5.77546875 4.06164062 -5.77546875 4.06164062 -4.78125 3.359375 C-3.18995001 2.23610442 -1.59530905 1.11756944 0 0 Z " fill="#0D2416" transform="translate(498,242)"/>
<path d="M0 0 C0.66 0.33 1.32 0.66 2 1 C0.625 2.5 0.625 2.5 -1 4 C-1.66 4 -2.32 4 -3 4 C-3.33 5.65 -3.66 7.3 -4 9 C-5.32 9.33 -6.64 9.66 -8 10 C-7.67 10.66 -7.34 11.32 -7 12 C-7.66 12.66 -8.32 13.32 -9 14 C-9.99 14 -10.98 14 -12 14 C-12 14.66 -12 15.32 -12 16 C-13.32 16.33 -14.64 16.66 -16 17 C-15.875 14.75 -15.875 14.75 -15 12 C-12.5 10.1875 -12.5 10.1875 -10.8984375 9.24609375 C-6.91492124 6.63139892 -3.50715894 3.21099885 0 0 Z " fill="#243F32" transform="translate(482,370)"/>
<path d="M0 0 C0 0.99 0 1.98 0 3 C-6.74153283 4.25841946 -13.13484138 5.26404456 -20 5 C-20.33 4.01 -20.66 3.02 -21 2 C-18.06271706 1.66465271 -15.12520182 1.33163987 -12.1875 1 C-11.35412109 0.90460938 -10.52074219 0.80921875 -9.66210938 0.7109375 C-8.45844727 0.57558594 -8.45844727 0.57558594 -7.23046875 0.4375 C-6.12288208 0.31181641 -6.12288208 0.31181641 -4.99291992 0.18359375 C-3 0 -3 0 0 0 Z " fill="#26382C" transform="translate(352,303)"/>
<path d="M0 0 C5.60476823 1.57804154 10.35050626 4.26416385 15.375 7.125 C16.20644531 7.59292969 17.03789063 8.06085938 17.89453125 8.54296875 C19.93234954 9.69070549 21.96735569 10.84313282 24 12 C23.67 12.66 23.34 13.32 23 14 C17.39 11.03 11.78 8.06 6 5 C5.67 5.99 5.34 6.98 5 8 C4.34 8 3.68 8 3 8 C3.061875 7.236875 3.12375 6.47375 3.1875 5.6875 C3.25898085 2.95474688 3.25898085 2.95474688 1.5 1.1875 C1.005 0.795625 0.51 0.40375 0 0 Z " fill="#0F1F14" transform="translate(550,260)"/>
<path d="M0 0 C0.99 -0.33 1.98 -0.66 3 -1 C3.66 -0.01 4.32 0.98 5 2 C0.25713263 4.5408218 -2.69990734 5.32502317 -8 4 C-8.33 5.32 -8.66 6.64 -9 8 C-10.32 8 -11.64 8 -13 8 C-11.8004855 4.40145651 -10.72074777 3.81383185 -7.625 1.75 C-6.83351563 1.20859375 -6.04203125 0.6671875 -5.2265625 0.109375 C-3 -1 -3 -1 0 0 Z " fill="#193929" transform="translate(609,715)"/>
<path d="M0 0 C0.52078125 0.40992188 1.0415625 0.81984375 1.578125 1.2421875 C0.4334375 1.3040625 0.4334375 1.3040625 -0.734375 1.3671875 C-2.0646875 1.8003125 -2.0646875 1.8003125 -3.421875 2.2421875 C-4.1334375 3.69625 -4.1334375 3.69625 -4.859375 5.1796875 C-6.421875 8.2421875 -6.421875 8.2421875 -9.609375 9.6171875 C-10.5375 9.8234375 -11.465625 10.0296875 -12.421875 10.2421875 C-13.411875 9.2521875 -14.401875 8.2621875 -15.421875 7.2421875 C-13.34983815 5.84685633 -11.26721804 4.47669273 -9.171875 3.1171875 C-8.58535156 2.71886719 -7.99882813 2.32054687 -7.39453125 1.91015625 C-2.96392641 -0.92742213 -2.96392641 -0.92742213 0 0 Z " fill="#F1F6F2" transform="translate(595.421875,749.7578125)"/>
<path d="M0 0 C-0.66 0 -1.32 0 -2 0 C-2 0.99 -2 1.98 -2 3 C-3.25 4.6875 -3.25 4.6875 -5 6 C-6.32 6 -7.64 6 -9 6 C-9.33 5.34 -9.66 4.68 -10 4 C-13.3 4.33 -16.6 4.66 -20 5 C-17.30621211 2.30621211 -14.77425019 1.86327163 -11.125 0.8125 C-9.89007813 0.44769531 -8.65515625 0.08289063 -7.3828125 -0.29296875 C-4.31094495 -0.93501035 -2.85642008 -1.12677877 0 0 Z " fill="#234535" transform="translate(392,266)"/>
<path d="M0 0 C6.64678899 2.4617737 6.64678899 2.4617737 8.3125 5 C8.6528125 5.99 8.6528125 5.99 9 7 C9.99 8.485 9.99 8.485 11 10 C9.02 10.33 7.04 10.66 5 11 C5 10.34 5 9.68 5 9 C4.34 8.67 3.68 8.34 3 8 C2.67 7.01 2.34 6.02 2 5 C-0.00016466 3.79117904 -0.00016466 3.79117904 -2 3 C-1.34 2.01 -0.68 1.02 0 0 Z " fill="#214333" transform="translate(525,203)"/>
<path d="M0 0 C1.16144531 0.00902344 2.32289063 0.01804687 3.51953125 0.02734375 C4.39996094 0.03894531 5.28039062 0.05054688 6.1875 0.0625 C3.95988052 2.34659434 2.25030935 4.01239394 -0.8125 5.0625 C-2.81796689 4.76381344 -4.81827205 4.42878677 -6.8125 4.0625 C-9.58114953 4.43108988 -9.58114953 4.43108988 -11.8125 5.0625 C-11.8125 3.72916667 -11.8125 2.39583333 -11.8125 1.0625 C-7.81454108 0.10630267 -4.10446078 -0.0414592 0 0 Z " fill="#D3D8CA" transform="translate(366.8125,287.9375)"/>
<path d="M0 0 C0.66 0.33 1.32 0.66 2 1 C0.68 2.65 -0.64 4.3 -2 6 C-2.66 5.34 -3.32 4.68 -4 4 C-2.68 2.68 -1.36 1.36 0 0 Z M-4 5 C-4.66 6.98 -5.32 8.96 -6 11 C-6.78375 11.061875 -7.5675 11.12375 -8.375 11.1875 C-9.24125 11.455625 -10.1075 11.72375 -11 12 C-12.37466625 14.47636012 -12.37466625 14.47636012 -13 17 C-13.99 16.67 -14.98 16.34 -16 16 C-6.73033708 5 -6.73033708 5 -4 5 Z " fill="#F2F7F3" transform="translate(431,363)"/>
<path d="M0 0 C8.17462189 5.09480442 16.11573349 10.47223922 24 16 C22.1875 16.625 22.1875 16.625 20 17 C17 15 17 15 15.375 13.1875 C13.12316092 11.11343769 11.18095606 9.92837823 8.5 8.5 C5.13610829 6.69890477 2.4092013 5.03768859 0 2 C0 1.34 0 0.68 0 0 Z " fill="#EBF2E6" transform="translate(411,692)"/>
<path d="M0 0 C0.33 0 0.66 0 1 0 C1 3.3 1 6.6 1 10 C1.66 9.01 2.32 8.02 3 7 C2.46246904 13.18160604 0.45417612 18.326858 -2 24 C-2.33 24 -2.66 24 -3 24 C-2.45423097 15.89963866 -1.45852964 7.98651182 0 0 Z " fill="#264435" transform="translate(731,546)"/>
<path d="M0 0 C4.85963179 0.60745397 8.7405518 2.72758967 13 5 C9.37673261 6.2077558 8.35853631 5.54311128 5 4 C6.32 4.99 7.64 5.98 9 7 C7.1875 8.0625 7.1875 8.0625 5 9 C2 8 2 8 0.8125 5.9375 C0.544375 5.298125 0.27625 4.65875 0 4 C0.66 4 1.32 4 2 4 C2 3.01 2 2.02 2 1 C1.34 0.67 0.68 0.34 0 0 Z " fill="#1A3E2C" transform="translate(440,622)"/>
<path d="M0 0 C3.16115776 1.36983503 3.9927092 1.9890638 6 5 C5.01 5 4.02 5 3 5 C2.01 6.485 2.01 6.485 1 8 C0.01 7.34 -0.98 6.68 -2 6 C-3.98 6.99 -3.98 6.99 -6 8 C-6 6.35 -6 4.7 -6 3 C-5.195625 2.690625 -4.39125 2.38125 -3.5625 2.0625 C-1.10919595 1.23664655 -1.10919595 1.23664655 0 0 Z " fill="#DADED0" transform="translate(511,216)"/>
<path d="M0 0 C1.65 0.33 3.3 0.66 5 1 C4.87890625 2.734375 4.87890625 2.734375 4 5 C1.27734375 7.140625 1.27734375 7.140625 -2.0625 9.25 C-3.16722656 9.95640625 -4.27195312 10.6628125 -5.41015625 11.390625 C-6.26480469 11.92171875 -7.11945312 12.4528125 -8 13 C-8.66 12.67 -9.32 12.34 -10 12 C-6.7 9.69 -3.4 7.38 0 5 C-0.66 5 -1.32 5 -2 5 C-2 4.01 -2 3.02 -2 2 C-1.34 2 -0.68 2 0 2 C0 1.34 0 0.68 0 0 Z " fill="#E5EBDF" transform="translate(596,714)"/>
<path d="M0 0 C0.66 0.33 1.32 0.66 2 1 C2 5 2 5 0.4375 6.6875 C-2.67415551 8.36300681 -5.5099039 8.61221154 -9 9 C-9.99 9.495 -9.99 9.495 -11 10 C-9.73459948 6.20379845 -8.21781569 5.51321812 -4.9375 3.3125 C-4.01839844 2.68988281 -3.09929688 2.06726563 -2.15234375 1.42578125 C-1.44207031 0.95527344 -0.73179687 0.48476563 0 0 Z " fill="#142B1C" transform="translate(620,704)"/>
<path d="M0 0 C0.33 0 0.66 0 1 0 C-0.35956057 15.45605701 -0.35956057 15.45605701 -4.125 19 C-4.74375 19.33 -5.3625 19.66 -6 20 C-5.45106187 11.14127424 -5.45106187 11.14127424 -2 7 C-1.26739841 4.68652128 -0.588562 2.354248 0 0 Z " fill="#162B1F" transform="translate(713,559)"/>
<path d="M0 0 C1.34391123 0.64507739 2.67353844 1.3197633 4 2 C5.155 2.5775 6.31 3.155 7.5 3.75 C11.77115493 6.18804123 13.83041977 9.66083954 16 14 C9.46720582 11.03982764 4.18221366 5.75054379 0 0 Z " fill="#112518" transform="translate(367,655)"/>
<path d="M0 0 C4.13621084 3.3810038 7.81316569 6.66590534 11 11 C10.4225 10.690625 9.845 10.38125 9.25 10.0625 C8.5075 9.711875 7.765 9.36125 7 9 C6.360625 8.690625 5.72125 8.38125 5.0625 8.0625 C2.64518233 7.75333247 2.64518233 7.75333247 0.25 10.4375 C-0.4925 11.283125 -1.235 12.12875 -2 13 C-1.814375 12.4225 -1.62875 11.845 -1.4375 11.25 C-0.95976454 8.79307475 -1.24270636 7.35602466 -2 5 C-1.01 5 -0.02 5 1 5 C1.33 4.67 1.66 4.34 2 4 C1.34 2.68 0.68 1.36 0 0 Z " fill="#E8F0E2" transform="translate(356,646)"/>
<path d="M0 0 C6.16618181 -0.40214229 11.17745757 1.03181664 17 3 C16.34 4.32 15.68 5.64 15 7 C15.66 7.33 16.32 7.66 17 8 C14.69 7.67 12.38 7.34 10 7 C10.33 6.01 10.66 5.02 11 4 C7.37 3.01 3.74 2.02 0 1 C0 0.67 0 0.34 0 0 Z " fill="#132E20" transform="translate(544,519)"/>
<path d="M0 0 C0 0.66 0 1.32 0 2 C0.66 2.33 1.32 2.66 2 3 C-0.60508636 2.88608368 -3.20845546 2.75934452 -5.8125 2.625 C-6.55048828 2.5940625 -7.28847656 2.563125 -8.04882812 2.53125 C-11.81893115 2.32653852 -13.79650741 2.13566173 -17 0 C-11.0885256 -0.77313045 -5.8685408 -1.14819277 0 0 Z " fill="#E2E5DB" transform="translate(688,302)"/>
<path d="M0 0 C2 3 2 3 1.625 5.1875 C1.41875 5.785625 1.2125 6.38375 1 7 C-0.65 7 -2.3 7 -4 7 C-4 6.34 -4 5.68 -4 5 C-5.29233607 3.62689293 -6.62437146 2.28965176 -8 1 C-5.21136993 -0.39431504 -3.07921132 -0.25660094 0 0 Z " fill="#224232" transform="translate(436,744)"/>
<path d="M0 0 C3.89006773 1.38780795 6.96558708 3.2152227 10.3125 5.625 C11.19550781 6.25664063 12.07851563 6.88828125 12.98828125 7.5390625 C13.65214844 8.02117188 14.31601562 8.50328125 15 9 C14.67 9.66 14.34 10.32 14 11 C13.01 10.34 12.02 9.68 11 9 C9.865625 8.773125 8.73125 8.54625 7.5625 8.3125 C2.71796495 6.5276713 2.11992932 4.57904733 0 0 Z " fill="#183023" transform="translate(424,611)"/>
<path d="M0 0 C-0.598125 0.2475 -1.19625 0.495 -1.8125 0.75 C-4.13293213 1.87980389 -4.13293213 1.87980389 -5.5625 4.125 C-6.036875 4.74375 -6.51125 5.3625 -7 6 C-7.99 6 -8.98 6 -10 6 C-10.33 6.66 -10.66 7.32 -11 8 C-12.98 8 -14.96 8 -17 8 C-13.2438856 3.39022324 -5.96911561 -1.9897052 0 0 Z " fill="#E6EADF" transform="translate(530,745)"/>
<path d="M0 0 C0.33 0.99 0.66 1.98 1 3 C2.65 2.67 4.3 2.34 6 2 C6 2.66 6 3.32 6 4 C1.38 6.64 -3.24 9.28 -8 12 C-8.33 11.34 -8.66 10.68 -9 10 C-4.25 7 -4.25 7 -2 7 C-2.33 5.35 -2.66 3.7 -3 2 C-2.01 1.34 -1.02 0.68 0 0 Z " fill="#E6ECE0" transform="translate(472,253)"/>
<path d="M0 0 C-1.50597677 4.25438437 -4.16747758 5.59420614 -8 7.75 C-9.0725 8.36359375 -10.145 8.9771875 -11.25 9.609375 C-14 11 -14 11 -16 11 C-15 8 -15 8 -12.0625 6.3125 C-9 5 -9 5 -7 5 C-6.67 4.01 -6.34 3.02 -6 2 C-3.85412616 0.684787 -2.52986895 0 0 0 Z " fill="#254334" transform="translate(583,752)"/>
<path d="M0 0 C2 1 2 1 4 5 C1.03 8.3 -1.94 11.6 -5 15 C-5 12 -5 12 -2.4375 9 C-1.633125 8.01 -0.82875 7.02 0 6 C-0.33 5.01 -0.66 4.02 -1 3 C-1.99 3.495 -1.99 3.495 -3 4 C-2.67 3.01 -2.34 2.02 -2 1 C-1.34 0.67 -0.68 0.34 0 0 Z " fill="#102A1B" transform="translate(678,624)"/>
<path d="M0 0 C3.06817635 2.0454509 4.62293569 3.58108171 6 7 C6.4140625 9.796875 6.4140625 9.796875 6.625 12.75 C6.69976563 13.73484375 6.77453125 14.7196875 6.8515625 15.734375 C6.90054688 16.48203125 6.94953125 17.2296875 7 18 C3.74282997 14.43747027 2.8714418 12.75665329 3 8 C2.01 7.34 1.02 6.68 0 6 C-0.1875 2.875 -0.1875 2.875 0 0 Z " fill="#264536" transform="translate(605,409)"/>
<path d="M0 0 C5.36891879 0.49869404 10.69235173 1.02227532 16 2 C16.33 3.32 16.66 4.64 17 6 C14.1875 6.1875 14.1875 6.1875 11 6 C10 5 9 4 8 3 C5.35597631 2.12921376 2.72969012 1.58173724 0 1 C0 0.67 0 0.34 0 0 Z " fill="#162D21" transform="translate(659,271)"/>
<path d="M0 0 C2.98440625 0 4.63591185 0.68566303 6.88671875 2.62890625 C8.63460934 4.38388767 10.33706129 6.16453738 12 8 C11.67 8.66 11.34 9.32 11 10 C9.02 8.02 7.04 6.04 5 4 C4.01 4.495 4.01 4.495 3 5 C2.01 5 1.02 5 0 5 C-0.5625 3.0625 -0.5625 3.0625 -1 1 C-0.67 0.67 -0.34 0.34 0 0 Z " fill="#142B1D" transform="translate(362,673)"/>
<path d="M0 0 C0.89203125 0.10183594 1.7840625 0.20367188 2.703125 0.30859375 C3.37859375 0.39238281 4.0540625 0.47617187 4.75 0.5625 C-0.75243899 4.23079266 -6.85543766 3.69039125 -13.25 3.5625 C-8.77762379 -0.1112376 -5.70402148 -0.67547623 0 0 Z " fill="#14291E" transform="translate(553.25,613.4375)"/>
<path d="M0 0 C-0.66 1.32 -1.32 2.64 -2 4 C-2.9075 3.79375 -3.815 3.5875 -4.75 3.375 C-8.11027897 2.9872755 -9.24075815 3.19588033 -12 5 C-12 4.34 -12 3.68 -12 3 C-7.72412838 -0.56322635 -5.40143532 -1.54326723 0 0 Z " fill="#E1E6D9" transform="translate(582,716)"/>
<path d="M0 0 C4.04420651 1.77945087 7.46078487 4.39529673 11 7 C7.66666667 7 4.33333333 7 1 7 C1.33 6.01 1.66 5.02 2 4 C1.01 3.67 0.02 3.34 -1 3 C-0.67 2.01 -0.34 1.02 0 0 Z " fill="#142A1D" transform="translate(521,240)"/>
<path d="M0 0 C3.94139078 1.66751148 6.7892812 4.22710649 10 7 C9.67 7.66 9.34 8.32 9 9 C8.01 8.34 7.02 7.68 6 7 C6.33 7.66 6.66 8.32 7 9 C5.68 9.33 4.36 9.66 3 10 C2.49008407 7.96033628 1.98155131 5.92159308 1.5 3.875 C1.04861276 1.92918141 1.04861276 1.92918141 0 0 Z " fill="#11281A" transform="translate(375,683)"/>
<path d="M0 0 C0.66 0.33 1.32 0.66 2 1 C0.41856529 2.43958847 -1.16522779 3.87658645 -2.75 5.3125 C-3.63171875 6.11300781 -4.5134375 6.91351562 -5.421875 7.73828125 C-7.55449328 9.60916911 -9.70187943 11.34084286 -12 13 C-12.66 12.67 -13.32 12.34 -14 12 C-12.5459375 10.88625 -12.5459375 10.88625 -11.0625 9.75 C-8.97612639 8.02690085 -8.09887521 7.26131306 -7.125 4.6875 C-7.08375 4.130625 -7.0425 3.57375 -7 3 C-6.34 3.33 -5.68 3.66 -5 4 C-3.35 2.68 -1.7 1.36 0 0 Z " fill="#0E1D12" transform="translate(643,665)"/>
<path d="M0 0 C0.763125 0.66 1.52625 1.32 2.3125 2 C4.84277939 4.29850538 4.84277939 4.29850538 8 4 C11 8.22222222 11 8.22222222 11 11 C8.525 10.01 8.525 10.01 6 9 C6 8.01 6 7.02 6 6 C5.01 6 4.02 6 3 6 C1.3125 4.6875 1.3125 4.6875 0 3 C0 2.01 0 1.02 0 0 Z " fill="#274537" transform="translate(416,605)"/>
<path d="M0 0 C0.66 0.66 1.32 1.32 2 2 C1.01 3.485 1.01 3.485 0 5 C0.33 5.66 0.66 6.32 1 7 C0.01 7.33 -0.98 7.66 -2 8 C-3.70855022 11.00007271 -3.70855022 11.00007271 -5 14 C-5.66 13.67 -6.32 13.34 -7 13 C-6.72285156 12.46890625 -6.44570313 11.9378125 -6.16015625 11.390625 C-5.79792969 10.68421875 -5.43570312 9.9778125 -5.0625 9.25 C-4.70285156 8.55390625 -4.34320313 7.8578125 -3.97265625 7.140625 C-2.93155445 5.03907978 -2.93155445 5.03907978 -2.49609375 2.796875 C-2.25052734 1.90742188 -2.25052734 1.90742188 -2 1 C-1.34 0.67 -0.68 0.34 0 0 Z " fill="#234535" transform="translate(462,392)"/>
<path d="M0 0 C-1.65 0.66 -3.3 1.32 -5 2 C-5 2.66 -5 3.32 -5 4 C-6.546875 3.9690625 -6.546875 3.9690625 -8.125 3.9375 C-11.55152969 3.99276661 -14.64572414 4.34550715 -18 5 C-17 3 -17 3 -14.19921875 1.89453125 C-12.46091797 1.35892578 -12.46091797 1.35892578 -10.6875 0.8125 C-9.53636719 0.44769531 -8.38523437 0.08289063 -7.19921875 -0.29296875 C-4.20460307 -0.95478247 -2.80251881 -1.08640853 0 0 Z " fill="#E6ECE3" transform="translate(404,279)"/>
<path d="M0 0 C0 0.66 0 1.32 0 2 C1.32 2.33 2.64 2.66 4 3 C3.67 4.65 3.34 6.3 3 8 C1.35 7.67 -0.3 7.34 -2 7 C-2.33 5.68 -2.66 4.36 -3 3 C-3.99 3.33 -4.98 3.66 -6 4 C-6 3.34 -6 2.68 -6 2 C-2.25 0 -2.25 0 0 0 Z " fill="#133423" transform="translate(436,279)"/>
<path d="M0 0 C0 0.66 0 1.32 0 2 C-1.95927063 3.7143618 -3.95880212 5.38405168 -6 7 C-5.01 8.485 -5.01 8.485 -4 10 C-8.455 10.495 -8.455 10.495 -13 11 C-4.91176471 0 -4.91176471 0 0 0 Z " fill="#14281F" transform="translate(495,205)"/>
<path d="M0 0 C4.3573226 1.47130373 7.71934134 3.83080615 11.3125 6.625 C11.86228516 7.04523437 12.41207031 7.46546875 12.97851562 7.8984375 C14.32292168 8.92720039 15.66201413 9.9629009 17 11 C16.01 11.495 16.01 11.495 15 12 C14.39671875 11.57847656 13.7934375 11.15695312 13.171875 10.72265625 C12.37265625 10.17480469 11.5734375 9.62695312 10.75 9.0625 C9.96109375 8.51722656 9.1721875 7.97195313 8.359375 7.41015625 C6.11912915 5.91159619 6.11912915 5.91159619 3.78125 5.46875 C3.1934375 5.3140625 2.605625 5.159375 2 5 C0.75 2.4375 0.75 2.4375 0 0 Z " fill="#0E1E11" transform="translate(402,704)"/>
<path d="M0 0 C0.66 0.33 1.32 0.66 2 1 C1.34 1.66 0.68 2.32 0 3 C0 3.99 0 4.98 0 6 C-0.66 6.66 -1.32 7.32 -2 8 C-2.99 8 -3.98 8 -5 8 C-6.65503095 9.0772721 -6.65503095 9.0772721 -8.1875 10.5 C-9.115625 11.325 -10.04375 12.15 -11 13 C-9.46356148 9.31930113 -7.21849055 7.01224796 -4.375 4.25 C-3.55773437 3.45078125 -2.74046875 2.6515625 -1.8984375 1.828125 C-0.95871094 0.92320312 -0.95871094 0.92320312 0 0 Z " fill="#0F2116" transform="translate(671,661)"/>
<path d="M0 0 C3.64419572 0.98491776 4.78914132 1.65826352 6.8125 4.9375 C8 8 8 8 8 11 C5.5625 10.3125 5.5625 10.3125 3 9 C2.3125 6.625 2.3125 6.625 2 4 C1.00916033 1.76591887 1.00916033 1.76591887 0 0 Z " fill="#264535" transform="translate(304,632)"/>
<path d="M0 0 C0.89130413 2.6739124 1.47731534 5.23723823 2 8 C1.401875 8.2475 0.80375 8.495 0.1875 8.75 C-2.28647521 10.16370012 -3.43370255 11.65055383 -5 14 C-4.46515599 8.65155992 -2.53309233 4.64203897 0 0 Z " fill="#E4E9DF" transform="translate(707,586)"/>
<path d="M0 0 C-0.99 1.485 -0.99 1.485 -2 3 C-6.8527811 3.32351874 -11.21996348 2.9560073 -16 2 C-16 1.67 -16 1.34 -16 1 C-10.63904667 -0.12862175 -5.44693314 -0.09688221 0 0 Z " fill="#162D21" transform="translate(562,637)"/>
<path d="M0 0 C2 2 2 2 2 5 C3.32 5.33 4.64 5.66 6 6 C5.67 6.66 5.34 7.32 5 8 C1.37 6.35 -2.26 4.7 -6 3 C-4 2 -2 1 0 0 Z " fill="#264738" transform="translate(505,784)"/>
<path d="M0 0 C0.33 0.66 0.66 1.32 1 2 C-0.26363473 3.96298601 -1.5361628 5.92024934 -2.8125 7.875 C-3.87404297 9.51082031 -3.87404297 9.51082031 -4.95703125 11.1796875 C-7 14 -7 14 -10 16 C-9.67 13.69 -9.34 11.38 -9 9 C-8.01 9 -7.02 9 -6 9 C-4.30452319 7.00473828 -4.30452319 7.00473828 -2.8125 4.5 C-2.01779297 3.24703125 -2.01779297 3.24703125 -1.20703125 1.96875 C-0.80871094 1.3190625 -0.41039062 0.669375 0 0 Z " fill="#0C1B0F" transform="translate(693,610)"/>
<path d="M0 0 C0 3 0 3 -1.5625 4.625 C-4.67270734 6.37947593 -7.47344754 6.66090842 -11 7 C-11.33 6.34 -11.66 5.68 -12 5 C-8.04 3.35 -4.08 1.7 0 0 Z " fill="#EBF3ED" transform="translate(464,345)"/>
<path d="M0 0 C4.23429756 1.31061591 8.07407404 2.94356259 12 5 C11.67 5.66 11.34 6.32 11 7 C10.34773437 6.69964844 9.69546875 6.39929688 9.0234375 6.08984375 C2.23925909 3.08503118 2.23925909 3.08503118 -5 4 C-5.33 3.01 -5.66 2.02 -6 1 C-3.03 1.495 -3.03 1.495 0 2 C0 1.34 0 0.68 0 0 Z " fill="#12261A" transform="translate(575,273)"/>
<path d="M0 0 C4.85967024 2.50346649 8.27856704 6.08552441 12 10 C7.73589314 10 6.20015828 7.66679857 3 5 C2.01 5 1.02 5 0 5 C0 3.33333333 0 1.66666667 0 0 Z " fill="#284738" transform="translate(513,192)"/>
<path d="M0 0 C4.43090471 1.20842856 6.98112756 2.51668565 10 6 C8.54257537 6.08096803 7.08387193 6.13917774 5.625 6.1875 C4.81289063 6.22230469 4.00078125 6.25710938 3.1640625 6.29296875 C2.44992187 6.19628906 1.73578125 6.09960938 1 6 C0.34 5.01 -0.32 4.02 -1 3 C-0.34 2.67 0.32 2.34 1 2 C0.67 1.34 0.34 0.68 0 0 Z " fill="#E6ECE0" transform="translate(441,713)"/>
<path d="M0 0 C0.66 0.33 1.32 0.66 2 1 C1.67 1.66 1.34 2.32 1 3 C1.66 3 2.32 3 3 3 C1.84826645 5.46800047 0.95216435 7.04783565 -1 9 C-1.71408334 10.98356483 -2.38617742 12.98315437 -3 15 C-3.66 14.34 -4.32 13.68 -5 13 C-3.35 8.71 -1.7 4.42 0 0 Z " fill="#0E1F14" transform="translate(722,583)"/>
<path d="M0 0 C-2.14601884 3.21902826 -3.58911508 4.29455754 -7 6 C-8.32 6 -9.64 6 -11 6 C-10.67 5.34 -10.34 4.68 -10 4 C-9.34 4 -8.68 4 -8 4 C-7.87625 3.360625 -7.7525 2.72125 -7.625 2.0625 C-7.41875 1.381875 -7.2125 0.70125 -7 0 C-4.3333581 -1.33332095 -2.83319697 -0.67102033 0 0 Z " fill="#244536" transform="translate(540,777)"/>
<path d="M0 0 C4 0 4 0 6.375 2.1875 C7.24125 3.115625 8.1075 4.04375 9 5 C10.96271781 6.71679808 12.97712601 8.35347466 15 10 C11.0032716 10 9.5590849 8.48575951 6.375 6.125 C5.39273437 5.40570312 4.41046875 4.68640625 3.3984375 3.9453125 C1 2 1 2 0 0 Z " fill="#0D1C12" transform="translate(385,717)"/>
<path d="M0 0 C0.66 0.33 1.32 0.66 2 1 C0.02 3.31 -1.96 5.62 -4 8 C-5.65 7.67 -7.3 7.34 -9 7 C-6.71973999 3.57960999 -6.6132423 3.87593753 -3 3 C-1.26973898 1.52109931 -1.26973898 1.52109931 0 0 Z " fill="#263C30" transform="translate(665,669)"/>
<path d="M0 0 C0.66 0.33 1.32 0.66 2 1 C1.57847656 1.45890625 1.15695312 1.9178125 0.72265625 2.390625 C0.17480469 3.00421875 -0.37304688 3.6178125 -0.9375 4.25 C-1.48277344 4.85328125 -2.02804687 5.4565625 -2.58984375 6.078125 C-4.06212799 8.08467305 -4.57529189 9.57002449 -5 12 C-6.32 12.33 -7.64 12.66 -9 13 C-7.47987323 7.59510481 -3.72614782 4.01507372 0 0 Z " fill="#274434" transform="translate(677,629)"/>
<path d="M0 0 C0 0.66 0 1.32 0 2 C1.65 2 3.3 2 5 2 C4.67 2.66 4.34 3.32 4 4 C-1.26053037 4.31563182 -4.44573816 3.66590937 -9 1 C-5.55424754 -0.72287623 -3.7311644 -1.24372147 0 0 Z " fill="#1D362A" transform="translate(507,611)"/>
<path d="M0 0 C1.06528748 2.73019786 1.07998186 3.79298812 0.00390625 6.578125 C-0.47175781 7.45984375 -0.94742187 8.3415625 -1.4375 9.25 C-1.91058594 10.14203125 -2.38367188 11.0340625 -2.87109375 11.953125 C-3.24363281 12.62859375 -3.61617188 13.3040625 -4 14 C-4.66 13.01 -5.32 12.02 -6 11 C-5.33333333 9.66666667 -4.66666667 8.33333333 -4 7 C-3.67 6.278125 -3.34 5.55625 -3 4.8125 C-2 3 -2 3 0 2 C0 1.34 0 0.68 0 0 Z " fill="#274637" transform="translate(390,408)"/>
<path d="M0 0 C1 2 1 2 0.9375 4.4375 C0 7 0 7 -3.0625 8.8125 C-4.031875 9.204375 -5.00125 9.59625 -6 10 C-4.6302836 6.00499382 -2.74277578 3.19990508 0 0 Z " fill="#172C20" transform="translate(466,384)"/>
<path d="M0 0 C1.58409994 0.11487748 3.16728963 0.24234508 4.75 0.375 C6.07257813 0.47941406 6.07257813 0.47941406 7.421875 0.5859375 C9.99066382 0.99850055 11.75841015 1.71160957 14 3 C10.52674819 4.1577506 7.63932552 4.06866652 4 4 C3.67 3.34 3.34 2.68 3 2 C2.01 1.34 1.02 0.68 0 0 Z " fill="#224634" transform="translate(496,330)"/>
<path d="M0 0 C0.66 0.33 1.32 0.66 2 1 C0.989375 1.70125 -0.02125 2.4025 -1.0625 3.125 C-2.75432167 4.42155138 -2.75432167 4.42155138 -4 6 C-4.02827577 9.25789019 -4.02827577 9.25789019 -3 12 C-4.65 11.67 -6.3 11.34 -8 11 C-7.9375 8.3125 -7.9375 8.3125 -7 5 C-4.85695876 3.00635346 -2.51607093 1.48467893 0 0 Z " fill="#142C1F" transform="translate(498,242)"/>
<path d="M0 0 C0.66 0.33 1.32 0.66 2 1 C-1.71274665 5.5565527 -6.79007402 7.57400393 -12 10 C-10.69522778 6.08568335 -9.01326694 5.42187412 -5.5625 3.25 C-4.57378906 2.61578125 -3.58507812 1.9815625 -2.56640625 1.328125 C-1.29603516 0.67070312 -1.29603516 0.67070312 0 0 Z " fill="#E8F1E9" transform="translate(478,240)"/>
<path d="M0 0 C2.1640625 0.2421875 2.1640625 0.2421875 4.625 0.875 C5.44226563 1.07867187 6.25953125 1.28234375 7.1015625 1.4921875 C8.04128906 1.74355469 8.04128906 1.74355469 9 2 C8.34 3.32 7.68 4.64 7 6 C3.51460083 5.35455571 0.97180943 3.89865603 -2 2 C-1.34 1.34 -0.68 0.68 0 0 Z " fill="#D5DBCA" transform="translate(523,228)"/>
<path d="M0 0 C0.33 1.98 0.66 3.96 1 6 C0.01 6.66 -0.98 7.32 -2 8 C-2.33 6.68 -2.66 5.36 -3 4 C-3.33 4.66 -3.66 5.32 -4 6 C-4.99 6.495 -4.99 6.495 -6 7 C-5.37162381 3.35541809 -4.14650034 0 0 0 Z " fill="#224535" transform="translate(511,192)"/>
<path d="M0 0 C0.66 0.33 1.32 0.66 2 1 C-0.40689803 3.72675159 -2.92471023 5.11966596 -6.1875 6.6875 C-7.08855469 7.12449219 -7.98960937 7.56148437 -8.91796875 8.01171875 C-9.60503906 8.33785156 -10.29210937 8.66398438 -11 9 C-11.33 8.34 -11.66 7.68 -12 7 C-10.04754815 5.80285445 -8.08785003 4.61751926 -6.125 3.4375 C-5.03445313 2.77621094 -3.94390625 2.11492188 -2.8203125 1.43359375 C-1.88960937 0.96050781 -0.95890625 0.48742187 0 0 Z " fill="#0F1E12" transform="translate(557,746)"/>
<path d="M0 0 C2.64 0.66 5.28 1.32 8 2 C8 2.66 8 3.32 8 4 C8.66 4 9.32 4 10 4 C10.66 5.32 11.32 6.64 12 8 C7.44328408 6.48109469 3.68276708 4.04597738 0 1 C0 0.67 0 0.34 0 0 Z " fill="#192C23" transform="translate(410,735)"/>
<path d="M0 0 C0.66 0.33 1.32 0.66 2 1 C-1.465 3.97 -1.465 3.97 -5 7 C-5.66 6.67 -6.32 6.34 -7 6 C-6.67 5.34 -6.34 4.68 -6 4 C-6.66 3.34 -7.32 2.68 -8 2 C-7.236875 1.855625 -6.47375 1.71125 -5.6875 1.5625 C-2.91827092 1.0367406 -2.91827092 1.0367406 0 0 Z " fill="#13291E" transform="translate(651,706)"/>
<path d="M0 0 C0.66 0.33 1.32 0.66 2 1 C-0.97 3.64 -3.94 6.28 -7 9 C-7.66 8.67 -8.32 8.34 -9 8 C-9 7.01 -9 6.02 -9 5 C-8.34 5 -7.68 5 -7 5 C-6.67 4.34 -6.34 3.68 -6 3 C-4.66923011 2.65657551 -3.33568021 2.32380126 -2 2 C-1.34 1.34 -0.68 0.68 0 0 Z " fill="#13241A" transform="translate(663,696)"/>
<path d="M0 0 C0.66 0.33 1.32 0.66 2 1 C0.72278474 5.99275057 -1.17330957 8.57611908 -5 12 C-5.66 11.67 -6.32 11.34 -7 11 C-6.195625 10.0925 -5.39125 9.185 -4.5625 8.25 C-2.56372959 5.86836652 -1.46394476 4.13162712 -1 1 C-0.67 0.67 -0.34 0.34 0 0 Z " fill="#11271B" transform="translate(653,652)"/>
<path d="M0 0 C1.98 1.65 3.96 3.3 6 5 C4.68 6.32 3.36 7.64 2 9 C1.01 8.01 0.02 7.02 -1 6 C-0.67 5.34 -0.34 4.68 0 4 C0 3.67 0 3.34 0 3 C0 2.01 0 1.02 0 0 Z " fill="#254735" transform="translate(410,599)"/>
<path d="M0 0 C1.875 0.125 1.875 0.125 4 1 C4.72045764 2.9812585 5.38001259 4.98504093 6 7 C8.0115195 9.80804265 8.0115195 9.80804265 10 12 C9.67 12.66 9.34 13.32 9 14 C7.67925885 12.42353449 6.36868776 10.83854469 5.0625 9.25 C4.33160156 8.36828125 3.60070312 7.4865625 2.84765625 6.578125 C1.16962815 4.23669045 0.41264834 2.80338873 0 0 Z " fill="#0D2117" transform="translate(462,579)"/>
<path d="M0 0 C5.61 0 11.22 0 17 0 C17 0.33 17 0.66 17 1 C15.67935547 1.07347656 15.67935547 1.07347656 14.33203125 1.1484375 C12.58986328 1.26058594 12.58986328 1.26058594 10.8125 1.375 C9.66394531 1.44460938 8.51539063 1.51421875 7.33203125 1.5859375 C4.20040883 1.97509574 1.84714191 2.6809851 -1 4 C-0.67 2.68 -0.34 1.36 0 0 Z " fill="#E1ECE6" transform="translate(618,338)"/>
<path d="M0 0 C4.29 0 8.58 0 13 0 C12.67 0.99 12.34 1.98 12 3 C7.83861737 3.08159574 4.0527516 2.98248524 0 2 C0 1.34 0 0.68 0 0 Z " fill="#D2D4CB" transform="translate(311,304)"/>
<path d="M0 0 C2.875 -0.1875 2.875 -0.1875 6 0 C6.66 0.99 7.32 1.98 8 3 C3.15758367 4.33583899 -0.93437617 5.25328119 -6 5 C-6 4.67 -6 4.34 -6 4 C-3.69 3.34 -1.38 2.68 1 2 C0.67 1.34 0.34 0.68 0 0 Z " fill="#254535" transform="translate(358,283)"/>
<path d="M0 0 C3.11227195 0 5.94152152 0.45627049 9 1 C6.8125 3.5625 6.8125 3.5625 4 6 C1.1875 5.8125 1.1875 5.8125 -1 5 C-0.67 3.35 -0.34 1.7 0 0 Z " fill="#224736" transform="translate(506,208)"/>
<path d="M0 0 C10.55808656 5.0022779 10.55808656 5.0022779 15 9 C11.33420402 8.41503256 8.49500856 7.42173293 5.25 5.625 C4.47140625 5.20476563 3.6928125 4.78453125 2.890625 4.3515625 C1 3 1 3 0 0 Z " fill="#0E1E12" transform="translate(468,747)"/>
<path d="M0 0 C0.99 0.66 1.98 1.32 3 2 C1.02 4.97 1.02 4.97 -1 8 C-1.33 7.01 -1.66 6.02 -2 5 C-2.99 5.33 -3.98 5.66 -5 6 C-4.67 5.01 -4.34 4.02 -4 3 C-1.9375 2.3125 -1.9375 2.3125 0 2 C0 1.34 0 0.68 0 0 Z " fill="#D6DCCF" transform="translate(661,665)"/>
<path d="M0 0 C0.99 0.99 1.98 1.98 3 3 C1.515 5.475 1.515 5.475 0 8 C-1.32 7.67 -2.64 7.34 -4 7 C-2.79618552 4.50638429 -1.54571278 2.31856917 0 0 Z " fill="#193022" transform="translate(691,639)"/>
<path d="M0 0 C4.95 0.33 9.9 0.66 15 1 C15 1.66 15 2.32 15 3 C9.72 3 4.44 3 -1 3 C-0.67 2.01 -0.34 1.02 0 0 Z " fill="#274335" transform="translate(513,614)"/>
<path d="M0 0 C1.85546875 0.22265625 1.85546875 0.22265625 4 1 C5.30078125 2.99609375 5.30078125 2.99609375 6.3125 5.4375 C6.65925781 6.24058594 7.00601562 7.04367187 7.36328125 7.87109375 C8 10 8 10 7 12 C5.83061933 10.18924982 4.66456267 8.37635257 3.5 6.5625 C2.8503125 5.55316406 2.200625 4.54382813 1.53125 3.50390625 C0 1 0 1 0 0 Z " fill="#0C1F12" transform="translate(327,606)"/>
<path d="M0 0 C0.66 0.33 1.32 0.66 2 1 C0.625 2.5 0.625 2.5 -1 4 C-1.66 4 -2.32 4 -3 4 C-3.33 5.65 -3.66 7.3 -4 9 C-5.98 9.33 -7.96 9.66 -10 10 C-3.84965831 2.51708428 -3.84965831 2.51708428 0 0 Z " fill="#2A4839" transform="translate(482,370)"/>
<path d="M0 0 C0.66 0.33 1.32 0.66 2 1 C1.67 1.99 1.34 2.98 1 4 C1.66 4.66 2.32 5.32 3 6 C1.68 6.33 0.36 6.66 -1 7 C-1.33 6.01 -1.66 5.02 -2 4 C-5.00847418 2.77479736 -5.00847418 2.77479736 -8 2 C-4.71023192 0.90341064 -3.28696233 1.20046862 0 2 C0 1.34 0 0.68 0 0 Z " fill="#274334" transform="translate(604,346)"/>
<path d="M0 0 C0.33 0.66 0.66 1.32 1 2 C3.52733235 2.65555119 3.52733235 2.65555119 6 3 C5.67 4.65 5.34 6.3 5 8 C3 7 3 7 2 4 C1.01 4.33 0.02 4.66 -1 5 C-0.67 3.35 -0.34 1.7 0 0 Z " fill="#163A26" transform="translate(289,288)"/>
<path d="M0 0 C-1.24735567 0.6509259 -2.49801832 1.29551669 -3.75 1.9375 C-4.44609375 2.29714844 -5.1421875 2.65679687 -5.859375 3.02734375 C-7.90224433 3.95558182 -9.81115376 4.53166578 -12 5 C-11.34 3.35 -10.68 1.7 -10 0 C-2.25 -1.125 -2.25 -1.125 0 0 Z " fill="#E6F0E4" transform="translate(430,281)"/>
<path d="M0 0 C0.33 0.66 0.66 1.32 1 2 C1.66 2 2.32 2 3 2 C3.66 3.32 4.32 4.64 5 6 C4.278125 5.7525 3.55625 5.505 2.8125 5.25 C-0.1794348 4.68262931 -0.1794348 4.68262931 -2.8125 6.9375 C-3.534375 7.618125 -4.25625 8.29875 -5 9 C-5.66 8.67 -6.32 8.34 -7 8 C-5.625 6.5 -5.625 6.5 -4 5 C-3.34 5 -2.68 5 -2 5 C-1.34 3.35 -0.68 1.7 0 0 Z " fill="#E8EFE1" transform="translate(511,228)"/>
<path d="M0 0 C0.99 0.33 1.98 0.66 3 1 C3 1.99 3 2.98 3 4 C5.475 4.99 5.475 4.99 8 6 C5.21176345 7.0326802 4.1322726 7.04509293 1.25 6.0625 C0.5075 5.711875 -0.235 5.36125 -1 5 C-0.67 3.35 -0.34 1.7 0 0 Z " fill="#244334" transform="translate(409,730)"/>
<path d="M0 0 C2.40072955 2.88087546 4.47291037 5.56404834 6 9 C2.18315774 7.44499019 -0.19195732 4.96404505 -3 2 C-2.01 1.34 -1.02 0.68 0 0 Z " fill="#274536" transform="translate(366,696)"/>
<path d="M0 0 C3.63 0 7.26 0 11 0 C7.9419128 3.0580872 7.12339076 3.69074569 3 4 C2.01 3.34 1.02 2.68 0 2 C0 1.34 0 0.68 0 0 Z " fill="#274336" transform="translate(589,631)"/>
<path d="M0 0 C7.62295082 1.47540984 7.62295082 1.47540984 9.4375 4 C9.623125 4.66 9.80875 5.32 10 6 C10.33 6.66 10.66 7.32 11 8 C6.40378078 6.5129879 3.53027653 4.20187872 0 1 C0 0.67 0 0.34 0 0 Z " fill="#274738" transform="translate(482,600)"/>
<path d="M0 0 C1.18414294 3.55242882 0.69535532 4.69830562 -0.4375 8.1875 C-0.72496094 9.08855469 -1.01242187 9.98960937 -1.30859375 10.91796875 C-1.53675781 11.60503906 -1.76492188 12.29210937 -2 13 C-2.33 13 -2.66 13 -3 13 C-4.22559653 7.60737527 -4.22559653 7.60737527 -3.1875 4.8125 C-2.13302899 3.20304424 -1.0673125 1.60096876 0 0 Z " fill="#274939" transform="translate(381,432)"/>
<path d="M0 0 C1.4540625 0.0309375 1.4540625 0.0309375 2.9375 0.0625 C1.125 2.0625 1.125 2.0625 -1.0625 4.0625 C-2.0525 4.0625 -3.0425 4.0625 -4.0625 4.0625 C-5.74486471 4.68849617 -7.4148962 5.35002268 -9.0625 6.0625 C-3.0625 0.0625 -3.0625 0.0625 0 0 Z " fill="#E4EBDE" transform="translate(500.0625,225.9375)"/>
<path d="M0 0 C2.9719385 1.12451727 5.33440687 2.22293791 8 4 C8.66 3.67 9.32 3.34 10 3 C10 3.99 10 4.98 10 6 C7.36 6 4.72 6 2 6 C1.855625 5.38125 1.71125 4.7625 1.5625 4.125 C1.06847775 1.96741678 1.06847775 1.96741678 0 0 Z " fill="#244232" transform="translate(448,737)"/>
<path d="M0 0 C1.27875 0.103125 2.5575 0.20625 3.875 0.3125 C4.95394531 0.39951172 4.95394531 0.39951172 6.0546875 0.48828125 C8 1 8 1 10 4 C9.67 4.66 9.34 5.32 9 6 C5.06326356 4.68775452 2.77280706 3.08089673 0 0 Z " fill="#172D22" transform="translate(400,728)"/>
<path d="M0 0 C0.66 0.66 1.32 1.32 2 2 C1.67 2.99 1.34 3.98 1 5 C-0.65 4.67 -2.3 4.34 -4 4 C-3.67 4.99 -3.34 5.98 -3 7 C-4.65 6.67 -6.3 6.34 -8 6 C-7.3125 4.0625 -7.3125 4.0625 -6 2 C-3.4375 1.3125 -3.4375 1.3125 -1 1 C-0.67 0.67 -0.34 0.34 0 0 Z " fill="#D5D8CD" transform="translate(574,718)"/>
<path d="M0 0 C6.52307692 1.47692308 6.52307692 1.47692308 8.9375 4.125 C9.288125 4.74375 9.63875 5.3625 10 6 C9.67 6.66 9.34 7.32 9 8 C7.49712782 6.85793642 5.99776716 5.71125043 4.5 4.5625 C3.6646875 3.92441406 2.829375 3.28632812 1.96875 2.62890625 C1.3190625 2.09136719 0.669375 1.55382812 0 1 C0 0.67 0 0.34 0 0 Z " fill="#284435" transform="translate(390,719)"/>
<path d="M0 0 C0.66 0.33 1.32 0.66 2 1 C1.06027344 1.72316406 1.06027344 1.72316406 0.1015625 2.4609375 C-0.71570313 3.09257813 -1.53296875 3.72421875 -2.375 4.375 C-3.18710937 5.00148438 -3.99921875 5.62796875 -4.8359375 6.2734375 C-7.04223195 7.96773494 -7.04223195 7.96773494 -9 10 C-9 9.01 -9 8.02 -9 7 C-7.03125 5.17578125 -7.03125 5.17578125 -4.5 3.3125 C-3.6646875 2.68988281 -2.829375 2.06726563 -1.96875 1.42578125 C-1.3190625 0.95527344 -0.669375 0.48476563 0 0 Z " fill="#E5EEE5" transform="translate(631,677)"/>
<path d="M0 0 C0.33 0.99 0.66 1.98 1 3 C-3.455 3.495 -3.455 3.495 -8 4 C-7.67 3.01 -7.34 2.02 -7 1 C-4.52260646 0.09162237 -2.66420516 0 0 0 Z " fill="#1C3427" transform="translate(567,610)"/>
<path d="M0 0 C0.66 0.33 1.32 0.66 2 1 C2.66666667 3 3.33333333 5 4 7 C3.34 7.66 2.68 8.32 2 9 C1.34 9 0.68 9 0 9 C-1.125 3.375 -1.125 3.375 0 0 Z " fill="#D5DDCF" transform="translate(308,590)"/>
<path d="M0 0 C4 4.5 4 4.5 4 9 C4.66 9.33 5.32 9.66 6 10 C6 10.99 6 11.98 6 13 C4.5 11.6875 4.5 11.6875 3 10 C3 9.01 3 8.02 3 7 C2.01 6.67 1.02 6.34 0 6 C0 4.02 0 2.04 0 0 Z " fill="#2B4638" transform="translate(455,561)"/>
<path d="M0 0 C0.33 0 0.66 0 1 0 C1.09038099 5.15171623 0.84681133 9.91913204 0 15 C-0.33 15 -0.66 15 -1 15 C-1.66 11.7 -2.32 8.4 -3 5 C-2.01 4.67 -1.02 4.34 0 4 C0 2.68 0 1.36 0 0 Z " fill="#0D2215" transform="translate(377,454)"/>
<path d="M0 0 C4.38889325 0.66498383 7.9811485 2.18757677 12 4 C11.01 4.33 10.02 4.66 9 5 C8.34 4.67 7.68 4.34 7 4 C7 4.66 7 5.32 7 6 C6.34 6 5.68 6 5 6 C5 5.01 5 4.02 5 3 C2.525 2.01 2.525 2.01 0 1 C0 0.67 0 0.34 0 0 Z " fill="#13261A" transform="translate(609,255)"/>
<path d="M0 0 C0.66 0.33 1.32 0.66 2 1 C-1.465 3.97 -1.465 3.97 -5 7 C-7 6 -7 6 -8 3 C-6.865625 2.690625 -5.73125 2.38125 -4.5625 2.0625 C-1.21224901 1.37075469 -1.21224901 1.37075469 0 0 Z " fill="#102418" transform="translate(498,223)"/>
<path d="M0 0 C2.31 0 4.62 0 7 0 C7.33 1.32 7.66 2.64 8 4 C6.35 4.33 4.7 4.66 3 5 C2.67 4.01 2.34 3.02 2 2 C1.34 1.34 0.68 0.68 0 0 Z M9 0 C9.33 0.66 9.66 1.32 10 2 C9.34 1.67 8.68 1.34 8 1 C8.33 0.67 8.66 0.34 9 0 Z " fill="#0F3E29" transform="translate(507,744)"/>
<path d="M0 0 C0.33 0.66 0.66 1.32 1 2 C-2.48520451 5.48520451 -4.04613656 6.3538439 -9 7 C-9 6.34 -9 5.68 -9 5 C-6.03 3.35 -3.06 1.7 0 0 Z " fill="#E6EEE5" transform="translate(552,730)"/>
<path d="M0 0 C0.66 0 1.32 0 2 0 C2.33 1.98 2.66 3.96 3 6 C2.34 5.67 1.68 5.34 1 5 C0.67 7.64 0.34 10.28 0 13 C-0.33 13 -0.66 13 -1 13 C-1.02696365 11.20841511 -1.04637917 9.41671527 -1.0625 7.625 C-1.07410156 6.62726562 -1.08570313 5.62953125 -1.09765625 4.6015625 C-1 2 -1 2 0 0 Z " fill="#2B4639" transform="translate(745,560)"/>
<path d="M0 0 C0.66 0.33 1.32 0.66 2 1 C0.88121617 2.17262904 -0.24523051 3.33795138 -1.375 4.5 C-2.00148438 5.1496875 -2.62796875 5.799375 -3.2734375 6.46875 C-5 8 -5 8 -7 8 C-6.8125 5.625 -6.8125 5.625 -6 3 C-3.5 1.75 -3.5 1.75 -1 1 C-0.67 0.67 -0.34 0.34 0 0 Z " fill="#182D1F" transform="translate(424,367)"/>
<path d="M0 0 C2.64 0.33 5.28 0.66 8 1 C8 1.66 8 2.32 8 3 C9.65 3.33 11.3 3.66 13 4 C13 4.33 13 4.66 13 5 C8.02693484 4.50269348 4.36200187 3.44697666 0 1 C0 0.67 0 0.34 0 0 Z " fill="#112115" transform="translate(601,269)"/>
<path d="M0 0 C5.75 1.75 5.75 1.75 8 4 C6.625 6 6.625 6 5 8 C4.34 8 3.68 8 3 8 C3.061875 7.236875 3.12375 6.47375 3.1875 5.6875 C3.25898085 2.95474688 3.25898085 2.95474688 1.5 1.1875 C1.005 0.795625 0.51 0.40375 0 0 Z " fill="#142C1D" transform="translate(550,260)"/>
<path d="M0 0 C0.598125 0.350625 1.19625 0.70125 1.8125 1.0625 C1.8125 1.7225 1.8125 2.3825 1.8125 3.0625 C-0.4975 3.3925 -2.8075 3.7225 -5.1875 4.0625 C-5.1875 2.7425 -5.1875 1.4225 -5.1875 0.0625 C-2.1875 -0.9375 -2.1875 -0.9375 0 0 Z " fill="#274436" transform="translate(522.1875,785.9375)"/>
<path d="M0 0 C0.66 0 1.32 0 2 0 C2 1.65 2 3.3 2 5 C-1.68754757 4.50168276 -3.60490662 3.89932357 -6 1 C-4.7934375 1.0309375 -4.7934375 1.0309375 -3.5625 1.0625 C-1.06645115 1.29633621 -1.06645115 1.29633621 0 0 Z " fill="#193023" transform="translate(493,780)"/>
<path d="M0 0 C0.33 0.66 0.66 1.32 1 2 C1.99 2 2.98 2 4 2 C3.25 3.9375 3.25 3.9375 2 6 C-0.125 6.75 -0.125 6.75 -2 7 C-1.125 2.25 -1.125 2.25 0 0 Z " fill="#152D1F" transform="translate(595,697)"/>
<path d="M0 0 C3 1 3 1 4 3 C4.99 3.33 5.98 3.66 7 4 C7.33 5.98 7.66 7.96 8 10 C4.71211176 6.88983545 2.16264012 3.98381075 0 0 Z " fill="#122215" transform="translate(335,619)"/>
<path d="M0 0 C0.33 0 0.66 0 1 0 C1.10815225 1.76949095 1.18566083 3.54087487 1.25 5.3125 C1.29640625 6.29863281 1.3428125 7.28476562 1.390625 8.30078125 C1 11 1 11 -1.015625 12.85546875 C-1.67046875 13.23316406 -2.3253125 13.61085938 -3 14 C-3.33 13.01 -3.66 12.02 -4 11 C-3.34 10.34 -2.68 9.68 -2 9 C-1.32348793 6.80295489 -1.32348793 6.80295489 -0.875 4.375 C-0.70742188 3.55773437 -0.53984375 2.74046875 -0.3671875 1.8984375 C-0.24601563 1.27195312 -0.12484375 0.64546875 0 0 Z " fill="#294437" transform="translate(613,340)"/>
<path d="M0 0 C-1.423125 0.37125 -1.423125 0.37125 -2.875 0.75 C-6.08693191 1.6857077 -6.08693191 1.6857077 -7.375 4.125 C-7.58125 4.74375 -7.7875 5.3625 -8 6 C-8.99 5.67 -9.98 5.34 -11 5 C-11 4.34 -11 3.68 -11 3 C-9.73581754 2.30034557 -8.46334598 1.61565237 -7.1875 0.9375 C-6.47980469 0.55464844 -5.77210938 0.17179687 -5.04296875 -0.22265625 C-3 -1 -3 -1 0 0 Z " fill="#EAF0E5" transform="translate(455,257)"/>
<path d="M0 0 C3 1 3 1 5 2 C5 2.66 5 3.32 5 4 C4.34 4 3.68 4 3 4 C3 4.66 3 5.32 3 6 C2.34 6 1.68 6 1 6 C1 5.34 1 4.68 1 4 C0.34 4 -0.32 4 -1 4 C-0.67 2.68 -0.34 1.36 0 0 Z " fill="#173626" transform="translate(407,257)"/>
<path d="M0 0 C0.66 0.33 1.32 0.66 2 1 C-2.455 3.97 -2.455 3.97 -7 7 C-7.33 5.35 -7.66 3.7 -8 2 C-6.8553125 2.061875 -6.8553125 2.061875 -5.6875 2.125 C-2.77281584 2.22080824 -2.77281584 2.22080824 0 0 Z " fill="#13271A" transform="translate(480,237)"/>
<path d="M0 0 C0.33 0.99 0.66 1.98 1 3 C-0.2065625 3.4021875 -0.2065625 3.4021875 -1.4375 3.8125 C-2.283125 4.204375 -3.12875 4.59625 -4 5 C-4.33 5.99 -4.66 6.98 -5 8 C-5.66 8 -6.32 8 -7 8 C-7.33 7.01 -7.66 6.02 -8 5 C-7.34 4.67 -6.68 4.34 -6 4 C-5.34 3.01 -4.68 2.02 -4 1 C-1.875 0.3125 -1.875 0.3125 0 0 Z " fill="#264434" transform="translate(468,227)"/>
<path d="M0 0 C1.65 0 3.3 0 5 0 C4.01 1.98 3.02 3.96 2 6 C0.35 5.67 -1.3 5.34 -3 5 C-2.01 4.67 -1.02 4.34 0 4 C0 2.68 0 1.36 0 0 Z " fill="#294537" transform="translate(642,709)"/>
<path d="M0 0 C0.99 0 1.98 0 3 0 C3 0.99 3 1.98 3 3 C-1.07369424 5.03684712 -3.58937864 5.0257259 -8 4 C-8 3.67 -8 3.34 -8 3 C-5.36 2.34 -2.72 1.68 0 1 C0 0.67 0 0.34 0 0 Z " fill="#2A4537" transform="translate(573,634)"/>
<path d="M0 0 C4.85963179 0.60745397 8.7405518 2.72758967 13 5 C10 6 10 6 7.625 5.3125 C4.72991455 3.86495727 2.45205415 2.1017607 0 0 Z " fill="#0D2216" transform="translate(440,622)"/>
<path d="M0 0 C3 1 3 1 5 3 C-1.625 5 -1.625 5 -5 5 C-3.35 3.35 -1.7 1.7 0 0 Z " fill="#E8EDE0" transform="translate(690,619)"/>
<path d="M0 0 C0.33 0.66 0.66 1.32 1 2 C1.66 2 2.32 2 3 2 C2.67 3.32 2.34 4.64 2 6 C0.35 5.67 -1.3 5.34 -3 5 C-2.625 3.0625 -2.625 3.0625 -2 1 C-1.34 0.67 -0.68 0.34 0 0 Z " fill="#264234" transform="translate(299,618)"/>
<path d="M0 0 C0.99 0 1.98 0 3 0 C1.66511872 3.59391114 0.03977277 6.75490696 -2 10 C-3.43088528 7.13822943 -2.59991697 5.06624227 -2 2 C-1.34 2 -0.68 2 0 2 C0 1.34 0 0.68 0 0 Z " fill="#284637" transform="translate(396,395)"/>
<path d="M0 0 C1.32 0 2.64 0 4 0 C4.33 1.32 4.66 2.64 5 4 C3.02 4.33 1.04 4.66 -1 5 C-1.66 4.01 -2.32 3.02 -3 2 C-2.01 2 -1.02 2 0 2 C0 1.34 0 0.68 0 0 Z " fill="#224534" transform="translate(396,273)"/>
<path d="M0 0 C0.99 0.495 0.99 0.495 2 1 C3.53668796 1.53534436 5.07904306 2.05454272 6.625 2.5625 C7.44226563 2.83191406 8.25953125 3.10132813 9.1015625 3.37890625 C9.72804688 3.58386719 10.35453125 3.78882813 11 4 C7.75778445 5.08073852 5.39597063 5.21676408 2 5 C1.34 4.34 0.68 3.68 0 3 C0 2.01 0 1.02 0 0 Z " fill="#264535" transform="translate(658,270)"/>
<path d="M0 0 C0.99 0.66 1.98 1.32 3 2 C2.6875 3.9375 2.6875 3.9375 2 6 C1.01 6.33 0.02 6.66 -1 7 C-1.99 5.68 -2.98 4.36 -4 3 C-2.68 2.67 -1.36 2.34 0 2 C0 1.34 0 0.68 0 0 Z " fill="#E4E8DA" transform="translate(536,234)"/>
<path d="M0 0 C2.475 0.99 2.475 0.99 5 2 C4.67 3.32 4.34 4.64 4 6 C1.03 5.505 1.03 5.505 -2 5 C-1.01 4.01 -0.02 3.02 1 2 C0.67 1.34 0.34 0.68 0 0 Z " fill="#E7ECDF" transform="translate(454,721)"/>
<path d="M0 0 C2.75 -0.25 2.75 -0.25 6 0 C8.375 2 8.375 2 10 4 C8.02 3.34 6.04 2.68 4 2 C3.67 2.66 3.34 3.32 3 4 C2.01 2.68 1.02 1.36 0 0 Z " fill="#162D21" transform="translate(415,716)"/>
<path d="M0 0 C1.32 0.66 2.64 1.32 4 2 C2.02 3.98 0.04 5.96 -2 8 C-2.66 7.67 -3.32 7.34 -4 7 C-2.25 3.125 -2.25 3.125 0 2 C0 1.34 0 0.68 0 0 Z " fill="#2B493B" transform="translate(676,680)"/>
<path d="M0 0 C0.99 0.99 1.98 1.98 3 3 C1.35 4.65 -0.3 6.3 -2 8 C-2.33 7.34 -2.66 6.68 -3 6 C-2.06553465 3.96855359 -1.06775224 1.96466413 0 0 Z " fill="#254436" transform="translate(683,673)"/>
<path d="M0 0 C0.66 1.32 1.32 2.64 2 4 C0.68 5.65 -0.64 7.3 -2 9 C-2.66 8.67 -3.32 8.34 -4 8 C-2.66666667 5.33333333 -1.33333333 2.66666667 0 0 Z " fill="#D5D9CC" transform="translate(653,658)"/>
<path d="M0 0 C5.75 0.75 5.75 0.75 8 3 C6.8553125 2.9690625 6.8553125 2.9690625 5.6875 2.9375 C2.89814214 2.87057159 2.89814214 2.87057159 0 4 C-0.66 3.34 -1.32 2.68 -2 2 C-1.34 2 -0.68 2 0 2 C0 1.34 0 0.68 0 0 Z " fill="#142D22" transform="translate(462,631)"/>
<path d="M0 0 C1.34187818 0.6492959 2.67479497 1.31731862 4 2 C4.99 2 5.98 2 7 2 C7.33 3.32 7.66 4.64 8 6 C4.08788267 4.84414715 1.1254959 3.64465038 -2 1 C-1.34 0.67 -0.68 0.34 0 0 Z " fill="#2C4A39" transform="translate(434,619)"/>
<path d="M0 0 C3.32604248 1.66302124 3.80042476 4.62976481 5 8 C4.58203125 10.23046875 4.58203125 10.23046875 4 12 C3.32645501 10.56570999 2.66140299 9.12742943 2 7.6875 C1.62875 6.88699219 1.2575 6.08648438 0.875 5.26171875 C0 3 0 3 0 0 Z " fill="#132319" transform="translate(386,558)"/>
<path d="M0 0 C0.66 0.33 1.32 0.66 2 1 C1.34 2.65 0.68 4.3 0 6 C-1.32 6 -2.64 6 -4 6 C-2.68 4.02 -1.36 2.04 0 0 Z " fill="#EBF5F0" transform="translate(407,387)"/>
<path d="M0 0 C2.64 0 5.28 0 8 0 C8 0.66 8 1.32 8 2 C3.375 4.125 3.375 4.125 0 3 C0 2.01 0 1.02 0 0 Z " fill="#D8DCD2" transform="translate(355,289)"/>
<path d="M0 0 C1.98 0 3.96 0 6 0 C6 0.99 6 1.98 6 3 C4.02 3.33 2.04 3.66 0 4 C0 2.68 0 1.36 0 0 Z " fill="#173224" transform="translate(344,274)"/>
<path d="M0 0 C1.31554985 0.4495045 2.62738358 0.90989716 3.9375 1.375 C5.03384766 1.75785156 5.03384766 1.75785156 6.15234375 2.1484375 C8 3 8 3 9 5 C7.68 5.33 6.36 5.66 5 6 C4.34 5.01 3.68 4.02 3 3 C2.01 2.67 1.02 2.34 0 2 C0 1.34 0 0.68 0 0 Z " fill="#274435" transform="translate(469,750)"/>
<path d="M0 0 C0 0.99 0 1.98 0 3 C-0.66 3 -1.32 3 -2 3 C-2.33 4.32 -2.66 5.64 -3 7 C-4.32 7 -5.64 7 -7 7 C-5.66667905 3.00003714 -3.5042173 2.16217663 0 0 Z " fill="#0E2114" transform="translate(603,716)"/>
<path d="M0 0 C-0.99 0.33 -1.98 0.66 -3 1 C-3.99 1.5259375 -3.99 1.5259375 -5 2.0625 C-7 3 -7 3 -10 3 C-9.67 2.01 -9.34 1.02 -9 0 C-5.8033 -1.37001429 -3.30096158 -0.8252404 0 0 Z " fill="#E2E6DB" transform="translate(604,703)"/>
<path d="M0 0 C1.32 1.32 2.64 2.64 4 4 C3.01 4.66 2.02 5.32 1 6 C0.01 5.34 -0.98 4.68 -2 4 C-1.34 2.68 -0.68 1.36 0 0 Z " fill="#E7EBE8" transform="translate(327,666)"/>
<path d="M0 0 C1.32 1.32 2.64 2.64 4 4 C3.34 4 2.68 4 2 4 C1.67 4.66 1.34 5.32 1 6 C1 5.34 1 4.68 1 4 C0.01 4.99 -0.98 5.98 -2 7 C-2.66 6.67 -3.32 6.34 -4 6 C-2.68 4.02 -1.36 2.04 0 0 Z " fill="#ECF1EE" transform="translate(723,631)"/>
<path d="M0 0 C0.33 0 0.66 0 1 0 C1.25 2.3125 1.25 2.3125 1 5 C-1 6.8125 -1 6.8125 -3 8 C-3 3.75589918 -2.68429577 3.00641127 0 0 Z " fill="#214533" transform="translate(710,615)"/>
<path d="M0 0 C0.33 0.66 0.66 1.32 1 2 C1.66 2 2.32 2 3 2 C3.66 3.32 4.32 4.64 5 6 C0.25 6.125 0.25 6.125 -2 5 C-1.34 3.35 -0.68 1.7 0 0 Z " fill="#D5DCCD" transform="translate(691,615)"/>
<path d="M0 0 C0.66 0.33 1.32 0.66 2 1 C-0.0140476 4.0210714 -1.63279613 5.60667426 -5 7 C-5.33 6.01 -5.66 5.02 -6 4 C-4.7934375 3.566875 -4.7934375 3.566875 -3.5625 3.125 C-0.8673532 2.26737432 -0.8673532 2.26737432 0 0 Z " fill="#193425" transform="translate(695,606)"/>
<path d="M0 0 C0.99 0.33 1.98 0.66 3 1 C0.03 3.475 0.03 3.475 -3 6 C-3.66 5.01 -4.32 4.02 -5 3 C-2.6875 1.4375 -2.6875 1.4375 0 0 Z " fill="#E8EDE2" transform="translate(440,262)"/>
<path d="M0 0 C0 3 0 3 -2.5 5.6875 C-3.325 6.450625 -4.15 7.21375 -5 8 C-5.33 6.68 -5.66 5.36 -6 4 C-4.02 2.68 -2.04 1.36 0 0 Z " fill="#224534" transform="translate(475,222)"/>
<path d="M0 0 C4 0 4 0 6 1 C4.02 2.32 2.04 3.64 0 5 C-0.5625 3.0625 -0.5625 3.0625 -1 1 C-0.67 0.67 -0.34 0.34 0 0 Z " fill="#182E21" transform="translate(586,749)"/>
<path d="M0 0 C2.86724686 0.57344937 3.8614515 0.8614515 6 3 C6.69748583 4.31747324 7.36959957 5.64914193 8 7 C4.2047869 5.50902342 2.38957269 3.24299151 0 0 Z " fill="#284537" transform="translate(352,688)"/>
<path d="M0 0 C0 0.66 0 1.32 0 2 C-1.95927063 3.7143618 -3.95880212 5.38405168 -6 7 C-6.33 5.68 -6.66 4.36 -7 3 C-2.25 0 -2.25 0 0 0 Z " fill="#284032" transform="translate(682,654)"/>
<path d="M0 0 C0 2.62113708 -0.31292445 4.50935112 -1 7 C-2.32 6.67 -3.64 6.34 -5 6 C-2.25 1.125 -2.25 1.125 0 0 Z " fill="#264234" transform="translate(712,643)"/>
<path d="M0 0 C4.875 4.625 4.875 4.625 6 8 C5.67 8.66 5.34 9.32 5 10 C3 9 3 9 2.1484375 6.93359375 C1.89320313 6.10988281 1.63796875 5.28617188 1.375 4.4375 C1.11460937 3.61121094 0.85421875 2.78492188 0.5859375 1.93359375 C0.39257812 1.29550781 0.19921875 0.65742187 0 0 Z " fill="#D4DACA" transform="translate(328,613)"/>
<path d="M0 0 C1.65 0 3.3 0 5 0 C4.625 2.4375 4.625 2.4375 4 5 C3.01 5.495 3.01 5.495 2 6 C2 5.01 2 4.02 2 3 C1.34 2.67 0.68 2.34 0 2 C0 1.34 0 0.68 0 0 Z " fill="#204838" transform="translate(728,608)"/>
<path d="M0 0 C0.99 0.66 1.98 1.32 3 2 C2.34 3.32 1.68 4.64 1 6 C0.01 5.67 -0.98 5.34 -2 5 C-1.125 1.125 -1.125 1.125 0 0 Z " fill="#264537" transform="translate(561,522)"/>
<path d="M0 0 C2.31 0 4.62 0 7 0 C6.34 1.32 5.68 2.64 5 4 C3.68 4 2.36 4 1 4 C0.67 2.68 0.34 1.36 0 0 Z " fill="#E0EADB" transform="translate(659,297)"/>
<path d="M0 0 C0.66 0.66 1.32 1.32 2 2 C1.01 3.485 1.01 3.485 0 5 C-3.625 5.1875 -3.625 5.1875 -7 5 C-2.25 1.125 -2.25 1.125 0 0 Z " fill="#D6D9CD" transform="translate(432,276)"/>
<path d="M0 0 C3.875 2.75 3.875 2.75 5 5 C0.545 4.01 0.545 4.01 -4 3 C-2.68 2.01 -1.36 1.02 0 0 Z " fill="#244435" transform="translate(627,274)"/>
<path d="M0 0 C4.875 4.75 4.875 4.75 6 7 C4.02 7 2.04 7 0 7 C-1.125 2.25 -1.125 2.25 0 0 Z " fill="#294637" transform="translate(554,224)"/>
<path d="M0 0 C3.96 1.98 3.96 1.98 8 4 C8 4.99 8 5.98 8 7 C6.66144944 6.21718695 5.32926356 5.42348123 4 4.625 C3.2575 4.18414063 2.515 3.74328125 1.75 3.2890625 C1.1725 2.86367188 0.595 2.43828125 0 2 C0 1.34 0 0.68 0 0 Z " fill="#0C1B0E" transform="translate(458,741)"/>
<path d="M0 0 C-0.66 1.32 -1.32 2.64 -2 4 C-3.32 4 -4.64 4 -6 4 C-6 3.34 -6 2.68 -6 2 C-2.25 0 -2.25 0 0 0 Z " fill="#264535" transform="translate(639,714)"/>
<path d="M0 0 C2 2 2 2 2 4 C-0.31 3.67 -2.62 3.34 -5 3 C-5 2.34 -5 1.68 -5 1 C-3 0 -3 0 0 0 Z " fill="#254133" transform="translate(374,681)"/>
<path d="M0 0 C0.66 0 1.32 0 2 0 C2.33 0.66 2.66 1.32 3 2 C3.66 2.33 4.32 2.66 5 3 C2.64561267 4.42944945 1.51967567 5.08661261 -1.25 4.625 C-1.8275 4.41875 -2.405 4.2125 -3 4 C-1.625 2 -1.625 2 0 0 Z " fill="#254534" transform="translate(636,665)"/>
<path d="M0 0 C0.66 0 1.32 0 2 0 C2 2.66666667 2 5.33333333 2 8 C0.62437146 6.71034824 -0.70766393 5.37310707 -2 4 C-2 3.34 -2 2.68 -2 2 C-1.34 2 -0.68 2 0 2 C0 1.34 0 0.68 0 0 Z " fill="#15281C" transform="translate(345,627)"/>
<path d="M0 0 C1.32 0 2.64 0 4 0 C3.67 1.98 3.34 3.96 3 6 C1.5 4.6875 1.5 4.6875 0 3 C0 2.01 0 1.02 0 0 Z " fill="#244637" transform="translate(736,589)"/>
<path d="M0 0 C0.99 0.33 1.98 0.66 3 1 C3 3.31 3 5.62 3 8 C2.01 8 1.02 8 0 8 C-1.09658936 4.71023192 -0.79953138 3.28696233 0 0 Z " fill="#D3D7CD" transform="translate(716,586)"/>
<path d="M0 0 C0.99 0.33 1.98 0.66 3 1 C3 2.65 3 4.3 3 6 C3.66 6.33 4.32 6.66 5 7 C4.01 7 3.02 7 2 7 C0 5 0 5 -0.125 2.375 C-0.08375 1.59125 -0.0425 0.8075 0 0 Z " fill="#254334" transform="translate(612,428)"/>
<path d="M0 0 C1.32 0 2.64 0 4 0 C3.67 1.98 3.34 3.96 3 6 C2.01 5.67 1.02 5.34 0 5 C0 3.35 0 1.7 0 0 Z " fill="#234535" transform="translate(476,257)"/>
</svg>
